<svg width="167" height="167" viewBox="0 0 167 167" fill="none" xmlns="http://www.w3.org/2000/svg">
<g id="_&#235;&#160;&#136;&#236;&#157;&#180;&#236;&#150;&#180;_1" clip-path="url(#clip0_3061_2805)">
<g id="Vector" filter="url(#filter0_d_3061_2805)">
<path d="M133.127 7.37868H33.7505C20.2715 7.37868 9.3446 18.3056 9.3446 31.7846V131.161C9.3446 144.64 20.2715 155.567 33.7505 155.567H133.127C146.606 155.567 157.533 144.64 157.533 131.161V31.7846C157.533 18.3056 146.606 7.37868 133.127 7.37868Z" fill="white"/>
</g>
<g id="Group">
<path id="Vector_2" d="M50.9135 80.1631L49.4132 79.7945C47.984 79.4712 46.7165 78.9215 46.7424 77.7186C46.7682 76.6128 47.7318 75.8044 49.4843 75.8044C51.2368 75.8044 52.2263 76.5869 52.3621 77.8997H55.6796C55.6343 74.9508 53.1898 72.9008 49.5037 72.9008C45.8176 72.9008 43.1921 74.9056 43.1921 77.945C43.1921 80.3894 44.9187 81.7928 47.7318 82.4847L49.549 82.9244C51.3662 83.3836 52.4073 83.9139 52.4073 85.0456C52.4073 86.2872 51.2304 87.1408 49.4132 87.1408C47.596 87.1408 46.2315 86.2872 46.1151 84.6058H42.7523C42.8429 88.1755 45.4231 90.0445 49.4584 90.0445C53.4938 90.0445 55.9124 88.1109 55.9124 85.0456C55.9124 82.2584 53.7718 80.8033 50.9135 80.1631Z" fill="url(#paint0_linear_3061_2805)"/>
<path id="Vector_3" d="M71.2 80.0467H63.9636V73.1336H60.5038V89.8181H63.9636V82.9051H71.2V89.8181H74.6791V73.1336H71.2V80.0467Z" fill="url(#paint1_linear_3061_2805)"/>
<path id="Vector_4" d="M83.2801 73.1336H79.8268V89.8181H83.2801V73.1336Z" fill="url(#paint2_linear_3061_2805)"/>
<path id="Vector_5" d="M118.44 73.1336H114.987H109.296V76.5934H114.987V89.8181H118.44V76.5934H124.131V73.1336H118.44Z" fill="url(#paint3_linear_3061_2805)"/>
<path id="Vector_6" d="M88.4342 73.1336V76.5934V89.8181H91.8875V78.7145L101.517 88.3437L103.961 85.8992L94.6553 76.5934H104.925V73.1336H91.8875H88.4342Z" fill="url(#paint4_linear_3061_2805)"/>
</g>
</g>
<defs>
<filter id="filter0_d_3061_2805" x="-0.255396" y="0.978677" width="167.388" height="167.388" filterUnits="userSpaceOnUse" color-interpolation-filters="sRGB">
<feFlood flood-opacity="0" result="BackgroundImageFix"/>
<feColorMatrix in="SourceAlpha" type="matrix" values="0 0 0 0 0 0 0 0 0 0 0 0 0 0 0 0 0 0 127 0" result="hardAlpha"/>
<feOffset dy="3.2"/>
<feGaussianBlur stdDeviation="4.8"/>
<feColorMatrix type="matrix" values="0 0 0 0 0 0 0 0 0 0 0 0 0 0 0 0 0 0 0.2 0"/>
<feBlend mode="normal" in2="BackgroundImageFix" result="effect1_dropShadow_3061_2805"/>
<feBlend mode="normal" in="SourceGraphic" in2="effect1_dropShadow_3061_2805" result="shape"/>
</filter>
<linearGradient id="paint0_linear_3061_2805" x1="49.3356" y1="77.2078" x2="49.3356" y2="90.3613" gradientUnits="userSpaceOnUse">
<stop stop-color="#A572AC"/>
<stop offset="0.34" stop-color="#B084B7" stop-opacity="0.87"/>
<stop offset="1" stop-color="#CFB3D3" stop-opacity="0.53"/>
</linearGradient>
<linearGradient id="paint1_linear_3061_2805" x1="67.5915" y1="75.8109" x2="67.5915" y2="89.9798" gradientUnits="userSpaceOnUse">
<stop stop-color="#A572AC"/>
<stop offset="0.34" stop-color="#B084B7" stop-opacity="0.87"/>
<stop offset="1" stop-color="#CFB3D3" stop-opacity="0.53"/>
</linearGradient>
<linearGradient id="paint2_linear_3061_2805" x1="81.5534" y1="74.9832" x2="81.5534" y2="89.1391" gradientUnits="userSpaceOnUse">
<stop stop-color="#A572AC"/>
<stop offset="0.34" stop-color="#B084B7" stop-opacity="0.87"/>
<stop offset="1" stop-color="#CFB3D3" stop-opacity="0.53"/>
</linearGradient>
<linearGradient id="paint3_linear_3061_2805" x1="116.714" y1="75.7915" x2="116.714" y2="90.6265" gradientUnits="userSpaceOnUse">
<stop stop-color="#A572AC"/>
<stop offset="0.34" stop-color="#B084B7" stop-opacity="0.87"/>
<stop offset="1" stop-color="#CFB3D3" stop-opacity="0.53"/>
</linearGradient>
<linearGradient id="paint4_linear_3061_2805" x1="96.6794" y1="74.8991" x2="96.6794" y2="91.3896" gradientUnits="userSpaceOnUse">
<stop stop-color="#A572AC"/>
<stop offset="0.34" stop-color="#B084B7" stop-opacity="0.87"/>
<stop offset="1" stop-color="#CFB3D3" stop-opacity="0.53"/>
</linearGradient>
<clipPath id="clip0_3061_2805">
<rect width="167" height="167" fill="white"/>
</clipPath>
</defs>
</svg>
