<svg width="52" height="19" viewBox="0 0 52 19" fill="none" xmlns="http://www.w3.org/2000/svg">
<path opacity="0.92" d="M8.675 9.15C8.09167 8.88333 7.55 8.68333 7.05 8.55C6.55 8.4 6.01667 8.325 5.45 8.325C5.03333 8.325 4.70833 8.40833 4.475 8.575C4.25833 8.725 4.15 8.94167 4.15 9.225C4.15 9.425 4.28333 9.61667 4.55 9.8C4.83333 9.98333 5.28333 10.1833 5.9 10.4C6.91667 10.7667 7.85833 11.2833 8.725 11.95C9.59167 12.6 10.025 13.45 10.025 14.5C10.025 15.7 9.59167 16.6333 8.725 17.3C7.875 17.9667 6.625 18.3 4.975 18.3C4.45833 18.3 3.76667 18.2 2.9 18C2.05 17.8 1.34167 17.4833 0.775 17.05L1.75 14.7C2.33333 14.9667 2.89167 15.175 3.425 15.325C3.975 15.4583 4.475 15.525 4.925 15.525C5.525 15.525 5.98333 15.4417 6.3 15.275C6.61667 15.1083 6.775 14.8917 6.775 14.625C6.775 14.2917 6.61667 13.9917 6.3 13.725C5.98333 13.4583 5.48333 13.2167 4.8 13C3.83333 12.6833 2.91667 12.2333 2.05 11.65C1.2 11.05 0.775 10.25 0.775 9.25C0.775 8.1 1.2 7.2 2.05 6.55C2.9 5.88333 4.05 5.55 5.5 5.55C6.01667 5.55 6.68333 5.65833 7.5 5.875C8.31667 6.09167 9.03333 6.40833 9.65 6.825L8.675 9.15ZM15.972 6.675C16.5053 6.25833 17.1137 5.94167 17.797 5.725C18.497 5.50833 19.122 5.4 19.672 5.4C21.322 5.4 22.4887 5.88333 23.172 6.85C23.872 7.81667 24.222 9 24.222 10.4V18H20.972V10.55C20.972 9.78333 20.7887 9.2 20.422 8.8C20.0553 8.38333 19.5137 8.175 18.797 8.175C18.3303 8.175 17.847 8.3 17.347 8.55C16.847 8.78333 16.3887 9.05833 15.972 9.375V18H12.747V0.624999L15.972 0.349999V6.675ZM29.052 0.499999C29.5687 0.499999 30.002 0.674999 30.352 1.025C30.7187 1.375 30.902 1.80833 30.902 2.325C30.902 2.84167 30.7187 3.275 30.352 3.625C30.002 3.975 29.5687 4.15 29.052 4.15C28.552 4.15 28.127 3.975 27.777 3.625C27.427 3.275 27.252 2.84167 27.252 2.325C27.252 1.80833 27.427 1.375 27.777 1.025C28.127 0.674999 28.552 0.499999 29.052 0.499999ZM30.677 5.875V18H27.427V5.875H30.677ZM34.5295 4.975C34.5295 3.575 34.9379 2.475 35.7545 1.675C36.5879 0.858332 37.7545 0.449999 39.2545 0.449999C39.6379 0.449999 40.0712 0.524999 40.5545 0.675C41.0379 0.825 41.4129 1.00833 41.6795 1.225L40.7545 3.575C40.5045 3.475 40.2629 3.4 40.0295 3.35C39.8129 3.28333 39.6045 3.25 39.4045 3.25C38.8379 3.25 38.4212 3.45833 38.1545 3.875C37.9045 4.275 37.7795 4.79167 37.7795 5.425V6.125H40.0795L41.1045 8.65H37.7795V18H34.5295V8.65H32.6545V6.125H34.5295V4.975ZM51.0873 17.75C50.8206 17.9667 50.4373 18.1417 49.9373 18.275C49.4539 18.425 49.0206 18.5 48.6373 18.5C47.1373 18.5 45.9539 18.125 45.0873 17.375C44.2373 16.6083 43.8123 15.525 43.8123 14.125V8.4H42.1873V5.9H43.8123V3.025L47.0373 2.45V5.9H49.2373L50.2373 8.4H47.0373V13.55C47.0373 14.1833 47.1873 14.7083 47.4873 15.125C47.7873 15.525 48.2289 15.725 48.8123 15.725C49.0289 15.725 49.2456 15.7 49.4623 15.65C49.6789 15.6 49.9039 15.5167 50.1373 15.4L51.0873 17.75Z" fill="#A56FC4"/>
</svg>
