<svg width="21" height="21" viewBox="0 0 21 21" fill="none" xmlns="http://www.w3.org/2000/svg">
<rect x="0.25" y="1.25" width="19.5" height="19.5" rx="1.75" fill="white" stroke="#9E9E9E" stroke-width="0.5"/>
<path d="M14.5 10.1338C15.1667 10.5187 15.1667 11.481 14.5 11.8659L8.5 15.33C7.83333 15.7149 7 15.2338 7 14.464V7.53576C7 6.76596 7.83333 6.28484 8.5 6.66974L14.5 10.1338Z" fill="black"/>
<path d="M13 11L8.5 13.5981V8.40192L13 11Z" fill="white"/>
<path d="M0 18H20V19C20 20.1046 19.1046 21 18 21H2C0.895431 21 0 20.1046 0 19V18Z" fill="#A570C4"/>
<circle cx="17.5" cy="3.5" r="3.5" fill="#A570C4"/>
<path d="M16.6724 4.38956C16.7919 4.55836 17.0424 4.55835 17.162 4.38955L19.2001 1.51191C19.3196 1.34313 19.5701 1.34309 19.6897 1.51181L19.711 1.54189C19.7846 1.64578 19.7846 1.78485 19.711 1.88878L17.162 5.48743C17.0424 5.65623 16.792 5.65623 16.6724 5.48743L15.2901 3.53589C15.2165 3.432 15.2165 3.29297 15.2901 3.18908L15.3112 3.15917C15.4308 2.99038 15.6813 2.99038 15.8009 3.15917L16.6724 4.38956Z" fill="white"/>
</svg>
