<svg width="72" height="72" viewBox="0 0 72 72" fill="none" xmlns="http://www.w3.org/2000/svg">
<rect width="72" height="72" fill="#E5E5E5"/>
<g id="&#226;&#156;&#133; SDSD1122(&#234;&#180;&#128;&#236;&#139;&#172;&#236;&#130;&#172;)">
<g id="SDSD1122-1" clip-path="url(#clip0_1776_5159)">
<rect width="1920" height="1380" transform="translate(-1524 -1129)" fill="white"/>
<g id="Layer_1" clip-path="url(#clip1_1776_5159)">
<path id="Vector" d="M35.77 0.589849C55.14 0.589849 70.88 16.3698 70.88 35.7798C70.88 55.1498 55.08 70.9298 35.71 70.9099C16.3 70.8899 0.579995 55.0898 0.599995 35.6098C0.609995 16.3098 16.41 0.579849 35.77 0.589849ZM68.07 35.7898C68.11 17.9998 53.61 3.44985 35.79 3.38985C18.05 3.33985 3.42999 17.9298 3.39999 35.7098C3.36999 53.5098 17.87 68.0498 35.69 68.0998C53.44 68.1598 68.03 53.5998 68.07 35.7998V35.7898Z" fill="url(#paint0_linear_1776_5159)" stroke="url(#paint1_linear_1776_5159)" stroke-miterlimit="10"/>
<path id="Vector_2" d="M38.9 32.5798C42.67 32.5798 46.13 32.5698 49.6 32.5798C51.9 32.5798 53.35 33.8298 53.36 35.7398C53.36 37.6498 51.9 38.8998 49.61 38.9198C46.14 38.9398 42.68 38.9198 38.99 38.9198C38.96 39.5998 38.9 40.2098 38.9 40.8198C38.89 42.8398 38.9 44.8698 38.9 46.8898C38.9 51.8298 38.11 53.4198 35.69 53.3798C33.29 53.3398 32.57 51.8198 32.57 46.8098C32.57 44.2698 32.57 41.7298 32.57 38.9198C31.09 38.9198 29.73 38.9198 28.37 38.9198C26 38.9198 23.63 38.9598 21.26 38.8998C19.42 38.8498 18.06 37.3898 18.11 35.6598C18.17 33.9798 19.47 32.6298 21.25 32.5998C24.94 32.5498 28.63 32.5798 32.57 32.5798C32.57 30.0198 32.57 27.6098 32.57 25.2098C32.57 23.9998 32.55 22.7798 32.57 21.5698C32.61 19.5398 33.88 18.1498 35.68 18.1098C37.53 18.0798 38.87 19.5198 38.89 21.6398C38.92 24.6498 38.89 27.6598 38.89 30.6598C38.89 31.2198 38.89 31.7898 38.89 32.5698L38.9 32.5798Z" fill="url(#paint2_linear_1776_5159)"/>
</g>
</g>
</g>
<defs>
<linearGradient id="paint0_linear_1776_5159" x1="35.74" y1="0.589844" x2="35.74" y2="70.9099" gradientUnits="userSpaceOnUse">
<stop stop-color="#CCAFD9"/>
<stop offset="1" stop-color="#9C76AC"/>
</linearGradient>
<linearGradient id="paint1_linear_1776_5159" x1="35.74" y1="0.589844" x2="35.74" y2="70.9099" gradientUnits="userSpaceOnUse">
<stop stop-color="#CCAFD9"/>
<stop offset="1" stop-color="#9C76AC"/>
</linearGradient>
<linearGradient id="paint2_linear_1776_5159" x1="35.7343" y1="18.1094" x2="35.7343" y2="53.3806" gradientUnits="userSpaceOnUse">
<stop stop-color="#9C76AC"/>
<stop offset="1" stop-color="#9C76AC"/>
</linearGradient>
<clipPath id="clip0_1776_5159">
<rect width="1920" height="1380" fill="white" transform="translate(-1524 -1129)"/>
</clipPath>
<clipPath id="clip1_1776_5159">
<rect width="71.47" height="71.5" fill="white"/>
</clipPath>
</defs>
</svg>
