<svg width="28" height="23" viewBox="0 0 28 23" fill="none" xmlns="http://www.w3.org/2000/svg">
<path d="M10.4302 16.8801C12.1002 14.7801 13.7202 12.7401 15.3402 10.7101C17.9102 7.48011 20.4702 4.25011 23.0402 1.02011C24.2702 -0.519888 26.5302 -0.269888 27.3102 1.49011C27.7402 2.47011 27.5602 3.37011 26.8902 4.21011C23.4202 8.56011 19.9602 12.9201 16.5002 17.2701C15.3202 18.7601 14.1402 20.2501 12.9502 21.7401C11.8602 23.1001 10.4402 23.2601 9.07015 22.1801C6.42015 20.0801 3.77015 17.9701 1.12015 15.8601C-0.109846 14.8801 -0.349846 13.3701 0.530154 12.2301C1.44015 11.0601 2.96015 10.9401 4.24015 11.9401C6.29015 13.5701 8.34015 15.2001 10.4402 16.8701L10.4302 16.8801Z" fill="white"/>
</svg>
