<svg width="121" height="38" viewBox="0 0 121 38" fill="none" xmlns="http://www.w3.org/2000/svg">
<g id="Group 807">
<path id="Rectangle 254" d="M0 23C0 31.2843 6.71573 38 15 38H106C114.284 38 121 31.2843 121 23V0H0V23Z" fill="#9C76AC"/>
<g id="Group 806">
<path id="Vector" d="M69.4488 11.3843C68.737 10.8252 67.7752 10.9191 67.167 11.6105C65.0227 14.0475 62.8783 16.4824 60.7407 18.9258C60.5582 19.135 60.4727 19.1478 60.2812 18.9301C58.1459 16.4867 55.9992 14.0496 53.8549 11.6148C53.3256 11.013 52.6678 10.8487 51.9853 11.141C51.2961 11.4376 50.9132 12.0693 51.0168 12.7458C51.0618 13.0381 51.2127 13.2793 51.4087 13.5012C54.0216 16.4739 56.6367 19.4444 59.2496 22.417C59.5829 22.7948 59.9929 23.0103 60.5222 22.9996C61.0223 22.9996 61.4255 22.8054 61.7408 22.4469C64.3627 19.4679 66.9868 16.4909 69.6042 13.5076C70.1921 12.8375 70.1132 11.9092 69.4465 11.3864L69.4488 11.3843Z" fill="white"/>
</g>
</g>
</svg>
