<svg width="121" height="38" viewBox="0 0 121 38" fill="none" xmlns="http://www.w3.org/2000/svg">
<path d="M0 15C0 6.71573 6.71573 0 15 0H106C114.284 0 121 6.71573 121 15V38H0V15Z" fill="#9C76AC"/>
<path d="M69.4488 26.6157C68.737 27.1748 67.7752 27.0809 67.167 26.3895C65.0227 23.9525 62.8783 21.5176 60.7407 19.0742C60.5582 18.865 60.4727 18.8522 60.2812 19.0699C58.1459 21.5133 55.9992 23.9504 53.8549 26.3852C53.3256 26.987 52.6678 27.1513 51.9853 26.859C51.2961 26.5624 50.9132 25.9307 51.0168 25.2542C51.0618 24.9619 51.2127 24.7207 51.4087 24.4988C54.0216 21.5261 56.6367 18.5556 59.2496 15.583C59.5829 15.2052 59.9929 14.9897 60.5222 15.0004C61.0223 15.0004 61.4255 15.1946 61.7408 15.5531C64.3627 18.5321 66.9868 21.5091 69.6042 24.4924C70.1921 25.1625 70.1132 26.0908 69.4465 26.6136L69.4488 26.6157Z" fill="white"/>
</svg>
