<svg width="225" height="49" viewBox="0 0 225 49" fill="none" xmlns="http://www.w3.org/2000/svg">
<path fill-rule="evenodd" clip-rule="evenodd" d="M11.9006 0.361328H32.7032C38.8706 0.361328 43.8684 5.47812 43.8684 11.7923C43.8684 18.1065 38.8706 23.2233 32.7032 23.2233H23.0658L23.0658 33.0901C23.0658 39.4042 18.068 44.521 11.9006 44.521C5.73318 44.521 0.735352 39.4042 0.735352 33.0901V11.7923C0.735352 5.47812 5.73318 0.361328 11.9006 0.361328ZM38.9549 48.3613C43.8042 48.3613 47.7354 44.3366 47.7354 39.3719C47.7354 34.4072 43.8042 30.3825 38.9549 30.3825C34.1056 30.3825 30.1744 34.4072 30.1744 39.3719C30.1744 44.3366 34.1056 48.3613 38.9549 48.3613ZM79.8299 20.8605L82.7393 21.5288L82.7519 21.5405C88.2948 22.7013 92.4457 25.3395 92.4457 30.3931C92.4457 35.9509 87.7555 39.4568 79.9303 39.4568C72.105 39.4568 67.1013 36.0681 66.9258 29.5958H73.4468C73.6726 32.6444 76.3186 34.1921 79.8425 34.1921C83.3664 34.1921 85.6487 32.6444 85.6487 30.3931C85.6487 28.3412 83.6297 27.3797 80.1058 26.5472L76.582 25.7499C71.1268 24.4953 67.7785 21.9509 67.7785 17.5188C67.7785 12.0079 72.8574 8.36133 80.0055 8.36133C87.1536 8.36133 91.8939 12.0782 91.9817 17.425H85.5484C85.2851 15.0447 83.3664 13.626 79.9679 13.626C76.5694 13.626 74.7009 15.0916 74.6507 17.0967C74.6006 19.2776 77.0585 20.2742 79.8299 20.8605ZM122.092 21.3294H108.059V8.79508H101.35V39.0346H108.059V26.5002H122.092V39.0346H128.839V8.79508H122.092V21.3294ZM138.821 8.79508H145.518V39.0463H138.821V8.79508ZM213.7 8.79508H207.003H195.967V15.0564H207.003V39.0346H213.7V15.0564H224.735V8.79508H213.7ZM155.5 15.0564V8.79508H162.209H187.491V15.0564H167.564L185.622 31.929L180.882 36.3612L162.209 18.9023V39.0346H155.5V15.0564Z" fill="white"/>
</svg>
