<svg width="110" height="102" viewBox="0 0 110 102" fill="none" xmlns="http://www.w3.org/2000/svg">
<g clip-path="url(#clip0_5073_1890)">
<path d="M40.3047 46.3671H46.8681L43.7214 36.5059L40.3047 46.3671Z" fill="#371C1D"/>
<path d="M55 0.0390625C24.6233 0.0390625 0 19.4917 0 43.5012C0 59.1235 10.4267 72.8151 26.0876 80.4757C24.9349 84.7628 21.9231 96.0254 21.3208 98.4336C20.5731 101.423 22.4113 101.382 23.6263 100.582C24.5714 99.9491 38.6952 90.3474 44.7914 86.2057C48.1042 86.6935 51.5106 86.953 55 86.953C85.3767 86.953 110 67.5004 110 43.5012C110 19.5021 85.3767 0.0390625 55 0.0390625ZM28.175 54.7015C28.175 57.3381 22.297 57.307 22.297 54.66C22.3282 51.0373 22.297 35.4981 22.297 35.4981H16.6371C13.3138 35.4981 13.3034 30.0796 16.6371 30.0692C16.6371 30.0692 29.8886 30.1834 33.8557 30.1834C37.3763 30.1834 37.3763 35.716 33.8557 35.716C30.1171 35.716 28.227 35.7057 28.227 35.7057L28.2062 54.7015H28.175ZM49.8178 55.3659C48.4469 51.7328 48.8 51.5771 48.8 51.5771H38.446L37.314 55.532C36.1093 58.3035 30.896 56.0406 32.111 53.2691C33.783 49.4284 38.8095 34.9479 40.2011 31.8857C40.7515 30.6712 42.0497 30.1834 43.379 30.1834C44.9887 30.1834 46.6399 30.8892 47.1073 31.8857C48.1146 34.0241 53.6084 49.1377 55.2077 53.3314C56.3189 56.269 50.9498 58.3035 49.8282 55.3659H49.8178ZM70.8167 56.6946C68.158 56.6946 62.1554 56.7257 59.4552 56.7257C56.7551 56.7257 57.2017 53.5701 57.2017 53.5701C57.2017 53.5701 57.1809 37.709 57.1705 32.7888C57.1705 31.0553 58.6971 30.1937 60.2341 30.1937C61.7711 30.1937 63.2874 31.0553 63.2978 32.7784C63.2978 36.3389 63.2874 51.0166 63.2874 51.0166C63.2874 51.0166 68.1373 51.0477 70.8063 51.0477C73.4753 51.0477 73.4753 56.7049 70.8167 56.7049V56.6946ZM89.0946 56.2586L81.6276 46.0859L79.9245 47.4561C79.9245 47.4561 79.9245 52.4802 79.9245 55.1375C79.9245 57.4212 74.1088 57.4212 74.1088 55.1375C74.1088 53.6947 74.2334 34.1798 74.1815 32.0207C74.1503 30.8269 75.6769 30.2145 77.1724 30.2145C78.564 30.2145 79.9349 30.7543 79.966 31.865C80.0491 34.7922 79.966 40.0861 79.966 40.0861C79.966 40.0861 88.3884 31.6574 89.5931 30.4636C90.8289 29.2284 94.6611 33.0898 93.4252 34.3147C91.3066 36.4219 85.9271 42.2348 85.9271 42.2348L93.851 52.667C95.3569 54.66 90.6108 58.2516 89.105 56.2586H89.0946Z" fill="#371C1D"/>
</g>
<defs>
<clipPath id="clip0_5073_1890">
<rect width="110" height="101" fill="white" transform="translate(0 0.0390625)"/>
</clipPath>
</defs>
</svg>
