<svg width="560" height="113" viewBox="0 0 560 113" fill="none" xmlns="http://www.w3.org/2000/svg">
<g clip-path="url(#clip0_5073_4206)">
<path d="M56.3475 47.9359L46.0417 45.5278C36.2246 43.4154 27.518 39.8243 27.6957 31.9661C27.8734 24.7417 34.4922 19.4607 46.5304 19.4607C58.5686 19.4607 65.3651 24.5727 66.2979 33.1491H89.0862C88.7752 13.8839 71.9839 0.491211 46.6636 0.491211C21.3434 0.491211 3.35269 13.6304 3.35269 33.4871C3.35269 49.4569 15.2132 58.6247 34.5366 63.1453L47.019 66.0182C59.5015 69.0178 66.6533 72.4822 66.6533 79.8756C66.6533 87.9873 58.5686 93.564 46.0862 93.564C33.6037 93.564 24.2308 87.9873 23.4312 77.0027H0.332031C0.953932 100.324 18.6781 112.533 46.3971 112.533C74.1161 112.533 90.7298 99.9012 90.7298 79.8756C90.7298 61.6666 76.0262 52.1608 56.3919 47.9782L56.3475 47.9359Z" fill="white"/>
<path d="M195.743 47.217H146.035V2.05371H122.27V111.012H146.035V65.8485H195.743V111.012H219.641V2.05371H195.743V47.217Z" fill="white"/>
<path d="M278.721 2.05371H255V111.054H278.721V2.05371Z" fill="white"/>
<path d="M520.242 2.05371H496.521H457.43V24.6143H496.521V111.012H520.242V24.6143H559.333V2.05371H520.242Z" fill="white"/>
<path d="M314.08 2.05371V24.6143V111.012H337.846V38.4717L403.989 101.379L420.781 85.4094L356.814 24.6143H427.399V2.05371H337.846H314.08Z" fill="white"/>
</g>
<defs>
<clipPath id="clip0_5073_4206">
<rect width="559" height="112" fill="white" transform="translate(0.332031 0.533203)"/>
</clipPath>
</defs>
</svg>
