<svg width="77" height="106" viewBox="0 0 77 106" fill="none" xmlns="http://www.w3.org/2000/svg">
<g clip-path="url(#clip0_5073_1893)">
<path d="M60.8612 50.8935C63.2867 55.0881 64.3642 59.3836 64.0224 64.0107C63.5905 69.8918 61.1032 74.7591 56.9737 78.8816C50.4803 85.3681 44.0913 91.9604 37.6026 98.4565C25.8974 110.171 6.33651 105.606 1.24811 89.8751C-1.48596 81.4186 0.279792 73.7116 6.39821 67.2972C13.0625 60.3109 19.9309 53.5169 26.7423 46.6748C33.4446 39.9432 43.721 38.3528 52.1226 42.6964C52.4691 42.8742 52.8061 43.076 53.2665 43.3307C51.7476 44.8634 50.3141 46.3385 48.8284 47.7607C48.6243 47.9529 48.1022 47.9721 47.7937 47.8664C41.1863 45.5697 35.4856 46.9967 30.5776 52.0082C24.0984 58.6244 17.5338 65.1542 11.0737 71.7849C2.57717 80.5056 6.53586 95.0066 18.2553 98C23.6048 99.3646 28.5365 98.173 32.5047 94.2763C39.563 87.3429 46.5453 80.3327 53.3567 73.1542C57.7284 68.5464 58.6255 62.944 56.5417 56.9283C56.2142 55.9818 56.3424 55.4484 57.0306 54.795C58.3217 53.5794 59.5226 52.2676 60.8564 50.8983L60.8612 50.8935Z" fill="#7D49BC"/>
<path d="M23.8322 61.8388C25.3701 60.3013 26.7561 58.8839 28.1991 57.5193C28.4127 57.3175 28.9158 57.2502 29.2101 57.3511C35.8649 59.6622 41.5894 58.2064 46.5259 53.1565C52.9196 46.6219 59.3845 40.1594 65.783 33.6345C71.8445 27.4555 72.153 18.3167 66.5615 11.8782C60.9936 5.46373 50.7551 4.8391 44.6889 10.7827C37.5357 17.7881 30.4633 24.8897 23.5854 32.169C19.2564 36.7528 18.44 42.3504 20.5333 48.318C20.8513 49.231 20.7326 49.7307 20.0729 50.3601C18.7818 51.5805 17.5761 52.8922 16.2376 54.2712C14.524 51.5036 13.551 48.6688 13.195 45.6369C12.3074 38.0982 14.6949 31.7366 20.0064 26.4272C26.6375 19.7965 33.1499 13.0361 39.8663 6.49677C46.1841 0.34178 53.7645 -1.50808 62.0474 1.3556C70.2876 4.20487 75.319 10.2349 76.6955 19.023C77.8395 26.3215 75.7082 32.7264 70.5961 37.9876C63.9223 44.8586 57.1631 51.643 50.3991 58.4274C43.6637 65.183 33.5391 66.8166 25.1328 62.5692C24.7483 62.377 24.3828 62.1511 23.8274 61.8388H23.8322Z" fill="#7D49BC"/>
</g>
<defs>
<clipPath id="clip0_5073_1893">
<rect width="77" height="105" fill="white" transform="translate(0 0.0390625)"/>
</clipPath>
</defs>
</svg>
