<svg width="20" height="19" viewBox="0 0 20 19" fill="none" xmlns="http://www.w3.org/2000/svg">
<g id="_&#235;&#160;&#136;&#236;&#157;&#180;&#236;&#150;&#180;_1" clip-path="url(#clip0_3085_1648)">
<g id="xegKGP">
<g id="Group">
<path id="Vector" d="M17.9109 6.7294C17.9109 9.89721 17.8801 12.9658 17.9258 16.0325C17.9447 17.313 16.9071 18.9519 14.9968 18.9735C10.9864 19.0187 6.97511 18.9971 2.96379 18.9794C1.33245 18.9725 0.00792217 17.6037 0.00891507 15.9962C0.00990797 12.0939 0.0267873 8.19252 -2.10349e-05 4.29119C-0.0109429 2.71808 1.24806 1.25005 2.92804 1.25594C6.58688 1.26772 10.2457 1.25987 14.0525 1.25987C13.417 1.87163 12.8779 2.40778 12.3139 2.9184C12.2146 3.00776 12.0141 3.01169 11.8592 3.01169C9.02048 3.0166 6.18079 3.01463 3.34208 3.01562C2.25486 3.01562 1.79614 3.46044 1.79415 4.5681C1.7872 8.02854 1.79018 11.489 1.79415 14.9504C1.79415 15.3726 1.79415 15.8018 1.86266 16.2171C1.95897 16.8043 2.40776 17.1539 3.0045 17.1549C6.94929 17.1578 10.8941 17.1588 14.8389 17.1549C15.6739 17.1539 16.1505 16.6541 16.1525 15.7929C16.1575 13.4912 16.1465 11.1895 16.1694 8.88775C16.1714 8.65012 16.3114 8.37026 16.4742 8.18565C16.9061 7.69958 17.3857 7.25475 17.9089 6.73136L17.9109 6.7294Z" fill="#383838"/>
<path id="Vector_2" d="M15.9976 1.37573C16.8813 2.25361 17.7402 3.10693 18.6139 3.97499C16.3282 6.23448 14.0327 8.5038 11.7371 10.7731C11.6557 10.8536 11.5564 10.9234 11.4938 11.0166C10.4771 12.5348 8.7405 12.5279 7.22136 12.9717C7.15384 12.9914 6.89569 12.7262 6.91555 12.6359C7.13696 11.6441 7.39214 10.6592 7.65128 9.67626C7.6771 9.57709 7.78334 9.4946 7.86377 9.41506C10.5674 6.74118 13.2721 4.06926 15.9976 1.37573Z" fill="#383838"/>
<path id="Vector_3" d="M19.438 3.12659C18.5662 2.26148 17.7193 1.4219 16.8704 0.578392C17.474 -0.147279 18.6069 -0.202269 19.3725 0.482159C20.1797 1.2039 20.2154 2.38128 19.437 3.12659H19.438Z" fill="#383838"/>
</g>
</g>
</g>
<defs>
<clipPath id="clip0_3085_1648">
<rect width="20" height="19" fill="white"/>
</clipPath>
</defs>
</svg>
