<svg width="93" height="19" viewBox="0 0 93 19" fill="none" xmlns="http://www.w3.org/2000/svg">
<g id="_&#235;&#160;&#136;&#236;&#157;&#180;&#236;&#150;&#180;_1" clip-path="url(#clip0_3101_2045)">
<path id="Vector" d="M9.31921 8.04146L7.60466 7.63293C5.97139 7.27458 4.52289 6.66537 4.55245 5.33229C4.58201 4.10672 5.68317 3.21083 7.68595 3.21083C9.68873 3.21083 10.8195 4.07805 10.9747 5.53297H14.7659C14.7142 2.26477 11.9206 -0.00720215 7.70812 -0.00720215C3.49563 -0.00720215 0.502543 2.22177 0.502543 5.59031C0.502543 8.29947 2.47576 9.85474 5.69056 10.6216L7.76724 11.109C9.84393 11.6178 11.0338 12.2055 11.0338 13.4598C11.0338 14.8359 9.68873 15.7819 7.61205 15.7819C5.53536 15.7819 3.976 14.8359 3.84298 12.9724H0C0.103465 16.9287 3.05221 19 7.66378 19C12.2753 19 15.0393 16.857 15.0393 13.4598C15.0393 10.3708 12.5931 8.75817 9.3266 8.04862L9.31921 8.04146Z" fill="white"/>
<path id="Vector_2" d="M32.51 7.91969H24.2402V0.258057H20.2864V18.742H24.2402V11.0804H32.51V18.742H36.486V0.258057H32.51V7.91969Z" fill="white"/>
<path id="Vector_3" d="M46.3153 0.258057H42.3689V18.7492H46.3153V0.258057Z" fill="white"/>
<path id="Vector_4" d="M86.4966 0.258057H82.5501H76.0466V4.08529H82.5501V18.742H86.4966V4.08529H93.0001V0.258057H86.4966Z" fill="white"/>
<path id="Vector_5" d="M52.198 0.258057V4.08529V18.742H56.1518V6.4361L67.156 17.1079L69.9496 14.3988L59.3075 4.08529H71.0507V0.258057H56.1518H52.198Z" fill="white"/>
</g>
<defs>
<clipPath id="clip0_3101_2045">
<rect width="93" height="19" fill="white"/>
</clipPath>
</defs>
</svg>
