<svg width="22" height="22" viewBox="0 0 22 22" fill="none" xmlns="http://www.w3.org/2000/svg">
<path d="M18.2342 0.107849H3.76595C1.74567 0.107849 0.10791 1.74561 0.10791 3.76589V18.2341C0.10791 20.2544 1.74567 21.8922 3.76595 21.8922H18.2342C20.2545 21.8922 21.8922 20.2544 21.8922 18.2341V3.76589C21.8922 1.74561 20.2545 0.107849 18.2342 0.107849Z" fill="white"/>
<path d="M18.2341 0.215686C20.1969 0.215686 21.7843 1.80745 21.7843 3.76588V18.2298C21.7843 20.1925 20.1925 21.78 18.2341 21.78H3.76588C1.80314 21.78 0.215686 20.1882 0.215686 18.2298V3.76588C0.215686 1.80745 1.80745 0.215686 3.76588 0.215686H18.2298M18.2298 0H3.76588C1.69098 0 0 1.69098 0 3.76588V18.2298C0 20.309 1.69098 21.9957 3.76588 21.9957H18.2298C20.309 21.9957 21.9957 20.3047 21.9957 18.2298V3.76588C21.9957 1.68667 20.3047 0 18.2298 0Z" fill="#B2B2B2"/>
<path d="M14.9168 9.84608C14.9168 9.84475 14.9161 9.84351 14.915 9.84285L9.57213 6.75961C8.94232 6.39726 8.15723 6.8502 8.15723 7.57922V13.7478C8.15723 14.4769 8.94232 14.9298 9.57213 14.5675L14.9168 11.4831C15.546 11.1212 15.5466 10.2124 14.9187 9.84933C14.9176 9.84866 14.9168 9.84742 14.9168 9.84608V9.84608Z" stroke="url(#paint0_linear_3671_3351)" stroke-width="1.5" stroke-miterlimit="10"/>
<defs>
<linearGradient id="paint0_linear_3671_3351" x1="7.82938" y1="10.6635" x2="15.7106" y2="10.6635" gradientUnits="userSpaceOnUse">
<stop offset="0.01" stop-color="#9C76AC"/>
<stop offset="1" stop-color="#7D6FAA"/>
</linearGradient>
</defs>
</svg>
