<svg width="24" height="23" viewBox="0 0 24 23" fill="none" xmlns="http://www.w3.org/2000/svg">
<path d="M18.6725 1.00128H3.85635C1.78749 1.00128 0.110352 2.64701 0.110352 4.67712V19.2158C0.110352 21.2459 1.78749 22.8916 3.85635 22.8916H18.6725C20.7413 22.8916 22.4185 21.2459 22.4185 19.2158V4.67712C22.4185 2.64701 20.7413 1.00128 18.6725 1.00128Z" fill="white"/>
<path d="M18.6726 1.10968C20.6825 1.10968 22.3081 2.70919 22.3081 4.67715V19.2115C22.3081 21.1837 20.6781 22.7789 18.6726 22.7789H3.85643C1.84649 22.7789 0.220872 21.1794 0.220872 19.2115V4.67715C0.220872 2.70919 1.85091 1.10968 3.85643 1.10968H18.6681M18.6681 0.892944H3.85643C1.73164 0.892944 0 2.59215 0 4.67715V19.2115C0 21.3008 1.73164 22.9957 3.85643 22.9957H18.6681C20.7973 22.9957 22.5246 21.2964 22.5246 19.2115V4.67715C22.5246 2.58782 20.7929 0.892944 18.6681 0.892944Z" fill="#B2B2B2"/>
<path d="M15.2757 10.787C15.2757 10.7856 15.2749 10.7844 15.2738 10.7837L9.80244 7.68546C9.15749 7.32135 8.35352 7.77649 8.35352 8.50906V14.7077C8.35352 15.4403 9.15749 15.8954 9.80244 15.5313L15.2757 12.432C15.92 12.0682 15.9206 11.155 15.2776 10.7902C15.2764 10.7895 15.2757 10.7883 15.2757 10.787Z" fill="url(#paint0_linear_3671_3238)"/>
<path d="M0.220703 19.1594C0.220703 18.9967 0.352672 18.8647 0.515464 18.8647H21.9087C22.117 18.8647 22.2859 19.0335 22.2859 19.2418C22.2859 21.1968 20.6691 22.7833 18.6768 22.7833H3.91369C1.87725 22.7833 0.220703 21.1577 0.220703 19.1594Z" fill="url(#paint1_linear_3671_3238)"/>
<path d="M19.6223 8.58274C22.0376 8.58274 23.9956 6.66143 23.9956 4.29137C23.9956 1.92131 22.0376 0 19.6223 0C17.207 0 15.249 1.92131 15.249 4.29137C15.249 6.66143 17.207 8.58274 19.6223 8.58274Z" fill="url(#paint2_linear_3671_3238)"/>
<path d="M22.1977 3.04949C22.1977 3.05089 22.1971 3.05223 22.1961 3.05323L19.2601 6.05996C19.185 6.13365 19.0834 6.177 18.9773 6.177C18.8713 6.177 18.7697 6.13365 18.6946 6.05996L17.4003 4.73354C17.2501 4.58182 17.2589 4.33908 17.4136 4.1917C17.5682 4.04432 17.8155 4.05299 17.9657 4.2047C18.5204 4.77273 19.434 4.77245 19.9883 4.2041L21.6322 2.5185C21.7824 2.36679 22.0298 2.36245 22.1844 2.5055C22.3385 2.65237 22.3434 2.89395 22.1992 3.04577C22.1982 3.04677 22.1977 3.04811 22.1977 3.04949Z" fill="white"/>
<defs>
<linearGradient id="paint0_linear_3671_3238" x1="8.3491" y1="11.6084" x2="15.7572" y2="11.6084" gradientUnits="userSpaceOnUse">
<stop offset="0.01" stop-color="#9C76AC"/>
<stop offset="1" stop-color="#7D6FAA"/>
</linearGradient>
<linearGradient id="paint1_linear_3671_3238" x1="0.220703" y1="20.824" x2="22.2859" y2="20.824" gradientUnits="userSpaceOnUse">
<stop offset="0.01" stop-color="#9C76AC"/>
<stop offset="1" stop-color="#7D6FAA"/>
</linearGradient>
<linearGradient id="paint2_linear_3671_3238" x1="15.249" y1="4.29137" x2="24" y2="4.29137" gradientUnits="userSpaceOnUse">
<stop offset="0.01" stop-color="#9C76AC"/>
<stop offset="1" stop-color="#7D6FAA"/>
</linearGradient>
</defs>
</svg>
