<?xml version="1.0" encoding="UTF-8"?><svg id="Layer_2" xmlns="http://www.w3.org/2000/svg" xmlns:xlink="http://www.w3.org/1999/xlink" viewBox="0 0 174.8 195.61"><defs><style>.cls-1{fill:url(#linear-gradient);stroke-width:0px;}</style><linearGradient id="linear-gradient" x1="0" y1="97.8" x2="174.8" y2="97.8" gradientUnits="userSpaceOnUse"><stop offset="0" stop-color="#9e78ac"/><stop offset="1" stop-color="#bf9bc8"/></linearGradient></defs><g id="Layer_1-2"><path class="cls-1" d="m102.52,195.61c-.1,0-.2,0-.29,0-1.21-.05-2.41-.12-3.62-.18-2.22-.12-4.51-.25-6.73-.26-9.33-.03-18.65-.03-27.98-.03-4.98,0-9.95,0-14.93,0-7.6,0-14.3-2.83-18.85-7.95-4.7-5.28-6.79-12.56-5.88-20.49,2.18-18.89-1-34.79-9.73-48.61-6.72-10.63-10.81-20.11-12.89-29.84-4.29-20.08-.02-39.63,12.71-58.09,4.87-7.06,10.91-12.95,17.96-17.49.21-.15.42-.31.63-.46,9.86-6.99,31.93-17.47,68.94-9.14,3.25.73,6.42,1.6,9.41,2.59,3.13,1.03,6.19,2.22,9.07,3.54,3,1.37,5.92,2.92,8.69,4.62,2.84,1.74,5.61,3.69,8.23,5.79,10,8.03,16.53,19.13,19.95,33.93,1.9,8.23,3.46,18.04.58,28.33-.68,2.45-.07,5.04,1.88,7.93,1.61,2.39,3.23,4.77,4.85,7.16,2.12,3.11,4.23,6.23,6.33,9.35,1.03,1.53,1.92,3.15,2.67,4.55,2.16,4.02,1.59,7.06-1.88,9.85-1.31,1.05-2.89,1.94-4.85,2.73-3.8,1.53-4.31,2.04-2.99,5.76,1.02,2.87,1.61,6.3-1.76,9.93-.15.2-.46,1.2-.4,2.91v.14c.08,1.79.17,4.25-2.67,6.35-2.03,1.49-2.28,3.72-2.05,7.84.13,2.37.17,5.15-.49,7.78-1.54,6.11-7.01,10.13-14.28,10.5-2.87.15-5.74.26-8.61.37-3.86.15-7.86.31-11.77.55-4.13.25-7.39,2.45-9.7,6.54-1.67,2.96-2.94,6.22-4.21,9.58-1.2,3.19-3.51,3.91-5.34,3.91Zm-30.71-6.48c6.7,0,13.39,0,20.09.03,2.37,0,4.74.14,7.04.27,1.1.06,2.2.12,3.31.17,0,0,0,0,0-.01,1.35-3.59,2.72-7.09,4.6-10.42,3.33-5.9,8.36-9.21,14.57-9.58,3.97-.24,8-.4,11.89-.55,2.85-.11,5.7-.23,8.54-.37,4.6-.23,7.88-2.47,8.77-5.98.47-1.85.42-4.06.32-5.99-.2-3.71-.51-9.32,4.49-13,.21-.16.27-.24.27-.24,0-.08-.02-.63-.04-1.04v-.15c-.09-2.22.18-5.28,1.98-7.22,1.06-1.15,1.25-1.76.51-3.85-2.37-6.69-.52-10.55,6.41-13.33,1.38-.56,2.5-1.17,3.33-1.84.8-.64.91-.94.91-.94h0s0-.35-.56-1.39h0c-.72-1.33-1.49-2.74-2.37-4.05-2.09-3.12-4.2-6.22-6.31-9.32-1.62-2.39-3.25-4.78-4.86-7.18-2.95-4.38-3.85-8.72-2.68-12.9,2.52-8.99,1.08-17.87-.65-25.37-3.1-13.44-8.95-23.45-17.86-30.6-2.42-1.94-4.98-3.75-7.61-5.36-2.56-1.57-5.27-3.01-8.05-4.28-2.68-1.23-5.53-2.33-8.45-3.3-2.82-.92-5.8-1.74-8.86-2.43-25.38-5.72-48.76-2.74-64.16,8.18-.21.15-.42.3-.63.45l-.16.11c-6.41,4.12-11.91,9.46-16.34,15.89C7.35,50.85,3.49,68.33,7.48,87c1.93,9.02,5.77,17.88,12.1,27.89,9.49,15.02,12.97,32.19,10.62,52.5-.72,6.21.85,11.82,4.4,15.81,3.4,3.82,8.51,5.93,14.38,5.94,4.98,0,9.95,0,14.92,0,2.64,0,5.28,0,7.91,0Z"/></g></svg>