<?xml version="1.0" encoding="UTF-8"?><svg id="Layer_2" xmlns="http://www.w3.org/2000/svg" xmlns:xlink="http://www.w3.org/1999/xlink" viewBox="0 0 176.81 197.54"><defs><style>.cls-1{fill:none;stroke:url(#linear-gradient);stroke-miterlimit:10;stroke-width:8px;}</style><linearGradient id="linear-gradient" x1="0" y1="98.77" x2="176.81" y2="98.77" gradientUnits="userSpaceOnUse"><stop offset="0" stop-color="#9e78ac"/><stop offset="1" stop-color="#bf9bc8"/></linearGradient></defs><g id="Layer_1-2"><path class="cls-1" d="m171.9,113.22c-.79-1.46-1.59-2.92-2.52-4.3-3.7-5.52-7.46-11-11.18-16.5-2.13-3.16-3.31-6.72-2.28-10.41,2.53-9.06,1.45-17.94-.61-26.85-2.94-12.73-8.52-23.93-18.91-32.26-2.52-2.02-5.16-3.89-7.92-5.57s-5.49-3.14-8.37-4.45-5.78-2.44-8.76-3.42-6.05-1.82-9.14-2.51C80.64,2.07,54.61,2.17,35.68,15.6c-.22.16-.45.32-.67.48-6.56,4.21-12.35,9.7-17.19,16.72C6.18,49.67,1.2,68.1,5.57,88.55c2.24,10.47,6.82,19.88,12.49,28.87,9.81,15.53,12.24,32.71,10.18,50.55-1.64,14.19,7.42,25.08,21.75,25.09,14.31.01,28.61-.02,42.92.03,3.49.01,6.97.3,10.46.44,1.4.06,2.16-.51,2.71-1.96,1.28-3.41,2.62-6.84,4.4-10,2.62-4.65,6.6-7.73,12.13-8.06,6.8-.41,13.6-.58,20.4-.92,5.82-.29,10.29-3.36,11.52-8.24.55-2.19.53-4.6.4-6.88-.22-3.94-.23-7.84,3.27-10.42,1.61-1.19,1.52-2.28,1.45-3.96-.07-1.71.15-3.94,1.19-5.06,2.08-2.25,2.1-4.16,1.13-6.89-1.86-5.25-.56-7.43,4.7-9.55,1.44-.58,2.89-1.32,4.09-2.28,2.35-1.89,2.56-3.41,1.11-6.09Z"/></g></svg>