<svg width="16" height="16" viewBox="0 0 16 16" fill="none" xmlns="http://www.w3.org/2000/svg">
<g clip-path="url(#clip0_3539_3119)">
<path d="M5.11 7.83957C4.92 7.54957 4.8 7.27957 4.61 7.08957C3.22 5.67957 1.82 4.28957 0.430002 2.88957C-0.139998 2.31957 -0.139998 1.86957 0.430002 1.28957C0.730002 0.98957 1.03 0.67957 1.34 0.37957C1.86 -0.13043 2.34 -0.13043 2.84 0.37957C4.24 1.77957 5.63 3.16957 7.03 4.56957C7.62 5.15957 8.06 5.15957 8.65 4.56957C10.03 3.18957 11.41 1.80957 12.79 0.42957C13.35 -0.13043 13.81 -0.13043 14.37 0.42957C14.69 0.74957 15.01 1.05957 15.32 1.38957C15.79 1.87957 15.79 2.36957 15.32 2.83957C13.92 4.24957 12.51 5.64957 11.11 7.05957C10.53 7.63957 10.53 8.07957 11.11 8.65957C12.5 10.0496 13.89 11.4396 15.28 12.8296C15.83 13.3796 15.83 13.8496 15.28 14.4096C14.98 14.7096 14.68 15.0196 14.37 15.3196C13.84 15.8396 13.36 15.8396 12.84 15.3196C11.44 13.9196 10.05 12.5296 8.65 11.1296C8.08 10.5596 7.63 10.5596 7.05 11.1296C5.66 12.5196 4.27 13.9096 2.88 15.2996C2.34 15.8396 1.87 15.8396 1.33 15.2996C1 14.9696 0.670002 14.6496 0.350002 14.3196C-0.109998 13.8496 -0.0999976 13.3596 0.350002 12.8896C1.77 11.4696 3.2 10.0496 4.61 8.61957C4.81 8.41957 4.93 8.13957 5.11 7.84957V7.83957Z" fill="#9C76AC"/>
</g>
<defs>
<clipPath id="clip0_3539_3119">
<rect width="15.69" height="15.68" fill="white"/>
</clipPath>
</defs>
</svg>
