<svg width="36" height="36" viewBox="0 0 36 36" fill="none" xmlns="http://www.w3.org/2000/svg">
<g clip-path="url(#clip0_5049_1719)">
<path d="M3.16308 33.6446H33.5225C33.5225 33.4545 33.5225 33.2645 33.5225 33.085C33.5225 28.3444 33.5225 23.6038 33.5225 18.8633C33.5225 18.726 33.5225 18.5782 33.5225 18.4409C33.5648 17.9658 33.9347 17.628 34.3893 17.6174C34.865 17.6069 35.2561 17.9658 35.2984 18.4515C35.3089 18.5782 35.2984 18.7049 35.2984 18.8316C35.2984 23.9734 35.2984 29.1257 35.2984 34.2675C35.2984 35.1649 35.013 35.4606 34.125 35.4606C23.5965 35.4606 13.0785 35.4606 2.54997 35.4606C1.65145 35.4606 1.35547 35.1755 1.35547 34.2886C1.35547 29.094 1.35547 23.8995 1.35547 18.7049C1.35547 18.2826 1.44004 17.8814 1.86287 17.7336C2.12714 17.6491 2.5394 17.6385 2.72968 17.7969C2.96223 17.9764 3.13137 18.367 3.14194 18.6627C3.17365 20.6265 3.16308 22.5903 3.16308 24.5435C3.16308 27.3942 3.16308 30.2554 3.16308 33.1061C3.16308 33.275 3.16308 33.444 3.16308 33.634V33.6446Z" fill="#9C76AC" stroke="#9C76AC" stroke-miterlimit="10"/>
<path d="M19.2415 4.64196C19.2415 4.9587 19.2415 5.14875 19.2415 5.32824C19.2415 10.7551 19.2415 16.1819 19.2415 21.6193C19.2415 21.8411 19.2415 22.0628 19.1993 22.2739C19.1041 22.7174 18.7976 22.9391 18.3642 22.9708C17.9519 23.0024 17.5608 22.6963 17.4868 22.2739C17.4445 22.0628 17.4445 21.8411 17.4445 21.6193C17.4445 16.1925 17.4445 10.7656 17.4445 5.32824C17.4445 5.13819 17.4445 4.9587 17.4445 4.64196C17.2436 4.83201 17.1274 4.94815 17.0111 5.05373C15.0238 7.03864 13.0365 9.02356 11.0491 11.0085C10.7637 11.2935 10.4255 11.5153 10.0449 11.3041C9.79122 11.1563 9.47409 10.8607 9.46352 10.6073C9.44238 10.3011 9.63265 9.91044 9.86521 9.67816C12.2859 7.21813 14.7384 4.78978 17.1802 2.3403C17.3599 2.16082 17.5291 1.97077 17.7088 1.80184C18.121 1.41119 18.5967 1.40064 18.9984 1.80184C21.6517 4.45192 24.305 7.10199 26.9582 9.76263C27.3916 10.1955 27.4022 10.7129 27.0111 11.0929C26.62 11.473 26.1231 11.4625 25.6792 11.019C23.6918 9.03412 21.7045 7.0492 19.7172 5.06428C19.6009 4.94815 19.4741 4.83201 19.2521 4.62085L19.2415 4.64196Z" fill="#9C76AC" stroke="#9C76AC" stroke-miterlimit="10"/>
</g>
<defs>
<clipPath id="clip0_5049_1719">
<rect width="35" height="35" fill="white" transform="translate(0.837891 0.989258)"/>
</clipPath>
</defs>
</svg>
