<svg width="202" height="43" viewBox="0 0 202 43" fill="none" xmlns="http://www.w3.org/2000/svg">
<g clip-path="url(#clip0_5336_2674)">
<path d="M0 10.4805V29.3343C0 34.9239 4.51846 39.4535 10.0943 39.4535C15.6701 39.4535 20.1886 34.9239 20.1886 29.3343V20.5997H10.0943C4.51846 20.6029 0 16.0701 0 10.4805Z" fill="url(#paint0_linear_5336_2674)"/>
<path d="M28.902 0.361328H10.0947C15.6706 0.361328 20.189 4.89095 20.189 10.4806V20.5998H28.902C34.4779 20.5998 38.9963 16.0702 38.9963 10.4806C38.9963 4.89095 34.4779 0.361328 28.902 0.361328Z" fill="url(#paint1_linear_5336_2674)"/>
<path d="M10.0943 0.361328C4.51846 0.361328 0 4.89095 0 10.4806C0 16.0702 4.51846 20.5998 10.0943 20.5998H20.1886V10.4806C20.1918 4.89095 15.6701 0.361328 10.0943 0.361328Z" fill="url(#paint2_radial_5336_2674)"/>
<path d="M10.0943 0.361328C4.51846 0.361328 0 4.89095 0 10.4806C0 16.0702 4.51846 20.5998 10.0943 20.5998H20.1886V10.4806C20.1918 4.89095 15.6701 0.361328 10.0943 0.361328Z" fill="white"/>
<path d="M34.5535 42.8533C38.9377 42.8533 42.4918 39.2904 42.4918 34.8954C42.4918 30.5004 38.9377 26.9375 34.5535 26.9375C30.1693 26.9375 26.6152 30.5004 26.6152 34.8954C26.6152 39.2904 30.1693 42.8533 34.5535 42.8533Z" fill="url(#paint3_linear_5336_2674)"/>
</g>
<g clip-path="url(#clip1_5336_2674)">
<path d="M68.769 18.3689L66.0392 17.7364C63.4389 17.1815 61.1327 16.2383 61.1797 14.1743C61.2268 12.2768 62.98 10.8897 66.1687 10.8897C69.3573 10.8897 71.1576 12.2324 71.4047 14.485H77.4408C77.3585 9.4249 72.9108 5.90723 66.204 5.90723C59.4971 5.90723 54.7318 9.35832 54.7318 14.5738C54.7318 18.7684 57.8734 21.1764 62.9917 22.3637L66.2981 23.1183C69.6044 23.9062 71.4988 24.8161 71.4988 26.758C71.4988 28.8886 69.3573 30.3534 66.051 30.3534C62.7446 30.3534 60.2619 28.8886 60.0502 26.0034H53.9316C54.0964 32.1288 58.7912 35.3358 66.1334 35.3358C73.4756 35.3358 77.8762 32.0179 77.8762 26.758C77.8762 21.9753 73.9815 19.4785 68.7808 18.38L68.769 18.3689Z" fill="white"/>
<path d="M105.692 18.1798H92.5255V6.31738H86.2305V34.9359H92.5255V23.0735H105.692V34.9359H112.022V6.31738H105.692V18.1798Z" fill="white"/>
<path d="M127.672 6.31738H121.389V34.947H127.672V6.31738Z" fill="white"/>
<path d="M191.645 6.31738H185.362H175.008V12.243H185.362V34.9359H191.645V12.243H202V6.31738H191.645Z" fill="white"/>
<path d="M137.037 6.31738V12.243V34.9359H143.332V15.8828L160.852 32.4058L165.3 28.2113L148.356 12.243H167.053V6.31738H143.332H137.037Z" fill="white"/>
</g>
<defs>
<linearGradient id="paint0_linear_5336_2674" x1="14.5905" y1="24.9606" x2="-11.4438" y2="24.9828" gradientUnits="userSpaceOnUse">
<stop stop-color="white"/>
<stop offset="1" stop-color="#D2BEDA"/>
</linearGradient>
<linearGradient id="paint1_linear_5336_2674" x1="28.8677" y1="5.12014" x2="16.0315" y2="16.5808" gradientUnits="userSpaceOnUse">
<stop stop-color="white"/>
<stop offset="0.82" stop-color="#D2BEDA"/>
</linearGradient>
<radialGradient id="paint2_radial_5336_2674" cx="0" cy="0" r="1" gradientUnits="userSpaceOnUse" gradientTransform="translate(10.0943 19.4042) scale(20.6363 14.688)">
<stop offset="0.23" stop-color="#DCD1FC"/>
<stop offset="1" stop-color="#A192C5"/>
</radialGradient>
<linearGradient id="paint3_linear_5336_2674" x1="26.6152" y1="34.8954" x2="42.4918" y2="34.8954" gradientUnits="userSpaceOnUse">
<stop stop-color="white"/>
<stop offset="1" stop-color="#D2BEDA"/>
</linearGradient>
<clipPath id="clip0_5336_2674">
<rect width="42.4919" height="42.4919" fill="white" transform="translate(0 0.361328)"/>
</clipPath>
<clipPath id="clip1_5336_2674">
<rect width="148.068" height="29.4175" fill="white" transform="translate(53.9316 5.91797)"/>
</clipPath>
</defs>
</svg>
