<svg width="45" height="45" viewBox="0 0 45 45" fill="none" xmlns="http://www.w3.org/2000/svg">
<circle cx="22.5" cy="22.5" r="21.75" fill="white" stroke="#CCAFD9" stroke-width="1.5"/>
<g clip-path="url(#clip0_3639_3238)">
<path d="M21.1607 33.9999V29.5618C20.5236 30.1666 19.8393 30.4101 19.1 30.2137C18.7539 30.1195 18.3921 29.876 18.1562 29.5932C17.5584 28.8862 17.6449 27.7629 18.282 27.1266C19.0213 26.3961 20.036 26.4354 21.1292 27.3152V22.8927H25.1562C24.4955 23.5604 24.2124 24.3302 24.4326 25.155C24.5584 25.642 24.8966 26.1369 25.2742 26.4825C26.1472 27.2759 27.4292 27.1581 28.3022 26.2861C29.2225 25.3749 29.2067 24.181 28.2236 22.9006H32.1562C32.164 23.0891 32.1876 23.3012 32.1876 23.5054C32.1876 26.3961 32.1876 29.2868 32.1876 32.1697C32.1876 33.4108 31.6213 33.9921 30.3944 33.9921C27.3506 33.9921 24.3067 33.9921 21.1685 33.9921L21.1607 33.9999Z" fill="url(#paint0_linear_3639_3238)"/>
<path d="M10 22.8692H14.2236C14.0663 22.3272 13.8461 21.8088 13.7674 21.2589C13.6809 20.6619 14.0112 20.1906 14.491 19.8371C15.2382 19.2951 16.2607 19.3736 16.9056 20.0256C17.5978 20.7326 17.5742 21.7145 16.764 22.8378H20.3506V26.0977C19.0528 25.7599 17.9753 26.0191 17.2596 27.1896C16.7247 28.0615 16.7876 29.1376 17.4011 29.9075C18.1562 30.8658 19.1551 31.07 20.3427 30.748V33.9843C20.1225 33.9843 19.8944 33.9843 19.6663 33.9843C17.0315 33.9843 14.3966 33.9843 11.7618 33.9843C10.6292 33.9843 10.0079 33.3637 10.0079 32.2326C10.0079 29.3026 10.0079 26.3648 10.0079 23.4348C10.0079 23.2698 10.0079 23.097 10.0079 22.8535L10 22.8692Z" fill="url(#paint1_linear_3639_3238)"/>
<path d="M13.2562 22.1937H10.0315C10.0236 21.9659 10 21.7616 10 21.5495C10 18.9024 10 16.2552 10 13.6001C10 12.4768 10.6213 11.8484 11.7539 11.8484C14.8135 11.8484 17.8809 11.8484 21.0034 11.8484V16.1138C21.5854 15.9331 22.1202 15.6896 22.6787 15.611C23.3315 15.5168 23.8348 15.8781 24.1809 16.428C24.6449 17.1585 24.4955 18.2504 23.8742 18.7924C23.1112 19.4601 22.1517 19.3972 21.0742 18.5332V22.1858H17.936C18.2427 20.8976 18.0146 19.8136 16.8034 19.0909C15.891 18.541 14.9787 18.6196 14.1528 19.2166C13.1461 19.9392 12.9101 20.9683 13.264 22.2015L13.2562 22.1937Z" fill="url(#paint2_linear_3639_3238)"/>
<path d="M35.7978 33.0338C35.4438 33.0338 35.1135 32.8767 34.8933 32.5939L31.4011 28.2107C31.1652 27.9122 31.0944 27.5195 31.1966 27.166L30.2135 25.9406C29.191 26.4276 28.0663 26.679 26.9337 26.679C26.6427 26.679 26.3517 26.6632 26.0607 26.6318C21.8607 26.1527 18.8326 22.3586 19.3045 18.1561C19.745 14.2835 23.0169 11.3613 26.918 11.3613C27.209 11.3613 27.5 11.377 27.791 11.4085C31.991 11.8876 35.0191 15.6817 34.5472 19.8842C34.3348 21.7537 33.4539 23.4583 32.0539 24.7073L32.9191 25.7913C32.9191 25.7913 32.9663 25.7913 32.9899 25.7913C33.3438 25.7913 33.6742 25.9484 33.8944 26.2233L37.3865 30.6065C37.5753 30.8501 37.6618 31.1486 37.6303 31.4549C37.5989 31.7613 37.4416 32.0362 37.1978 32.2326L36.5135 32.7746C36.309 32.9395 36.0573 33.0259 35.7899 33.0259L35.7978 33.0338Z" fill="url(#paint3_linear_3639_3238)"/>
<path d="M26.918 11.7305C27.1932 11.7305 27.4685 11.7462 27.7517 11.7777C31.7629 12.2333 34.6416 15.8467 34.1854 19.8449C33.9651 21.8087 32.9741 23.5055 31.5505 24.668L32.7696 26.1998C32.8404 26.1762 32.9191 26.1684 32.9899 26.1684C33.2258 26.1684 33.4539 26.2705 33.6112 26.4669L37.1033 30.8501C37.3786 31.1957 37.3157 31.6906 36.9775 31.9655L36.2932 32.5075C36.1438 32.6253 35.9708 32.6803 35.7977 32.6803C35.5618 32.6803 35.3337 32.5782 35.1764 32.3818L31.6842 27.9986C31.4798 27.7394 31.464 27.3938 31.6135 27.1189L30.3157 25.4928C29.2932 26.027 28.1449 26.3255 26.9337 26.3255C26.6584 26.3255 26.3831 26.3098 26.1 26.2783C22.0887 25.8227 19.2101 22.2094 19.6663 18.2111C20.091 14.4798 23.2528 11.7305 26.918 11.7305ZM26.918 11C22.8359 11 19.4067 14.0635 18.9427 18.1168C18.6989 20.2456 19.3045 22.3429 20.6416 24.0161C21.9786 25.6892 23.8899 26.7497 26.0213 26.9932C26.3281 27.0246 26.6348 27.0482 26.9337 27.0482C28.0191 27.0482 29.1045 26.8204 30.1033 26.3883L30.7955 27.2602C30.7326 27.6687 30.8348 28.1007 31.1101 28.4385L34.6022 32.8217C34.8932 33.1831 35.3258 33.3951 35.7899 33.3951C36.1359 33.3951 36.4663 33.2773 36.7337 33.0652L37.418 32.5232C38.0708 32.0048 38.1809 31.0464 37.6618 30.3866L34.1696 26.0034C33.9022 25.6656 33.509 25.4614 33.0921 25.4378L32.5416 24.7466C33.8629 23.4583 34.6887 21.7695 34.9011 19.9235C35.1449 17.7947 34.5393 15.6974 33.2022 14.0242C31.873 12.3511 29.9618 11.2906 27.8303 11.055C27.5314 11.0157 27.2247 11 26.918 11Z" fill="white"/>
<path d="M27.6101 13.0423C30.9214 13.4194 33.2966 16.3965 32.9191 19.7035C32.5416 23.0106 29.5528 25.3828 26.2494 25.0058C22.9461 24.6287 20.5629 21.6438 20.9405 18.3446C21.318 15.0454 24.3067 12.6653 27.6101 13.0423Z" fill="white"/>
<path d="M20.9326 18.3446C21.3101 15.0375 24.2989 12.6653 27.6022 13.0423C30.9056 13.4194 33.2888 16.3965 32.9112 19.7035C32.5337 23.0106 29.5449 25.3828 26.2416 25.0058C22.9382 24.6287 20.5551 21.6438 20.9326 18.3446Z" stroke="white" stroke-width="0.93" stroke-miterlimit="10"/>
<path d="M27.3663 21.1803H26.218C26.1787 20.7404 26.1551 20.4184 26.1551 20.0885C26.1551 19.3186 26.5798 18.8238 27.0989 18.3839C27.6416 17.9204 28.027 17.4648 28.027 16.8207C28.027 16.0823 27.6809 15.7053 26.9967 15.7053C26.4854 15.7053 25.927 15.9723 25.4472 16.4358L24.8809 15.6267C25.4944 14.9826 26.2101 14.6841 27.1933 14.6841C28.5304 14.6841 29.2933 15.6267 29.2933 16.7736C29.2933 17.6298 28.7034 18.3682 28.1371 18.8473C27.6573 19.2244 27.3663 19.6407 27.3663 20.4969V21.1803ZM27.5079 23.3484H26.1236V22.0523H27.5079V23.3484Z" fill="url(#paint4_linear_3639_3238)"/>
</g>
<defs>
<linearGradient id="paint0_linear_3639_3238" x1="17.7472" y1="28.4463" x2="32.1798" y2="28.4463" gradientUnits="userSpaceOnUse">
<stop offset="0.01" stop-color="#9C76AC"/>
<stop offset="1" stop-color="#7D6FAA"/>
</linearGradient>
<linearGradient id="paint1_linear_3639_3238" x1="10" y1="26.7418" x2="20.3506" y2="26.7418" gradientUnits="userSpaceOnUse">
<stop offset="0.01" stop-color="#9C76AC"/>
<stop offset="1" stop-color="#7D6FAA"/>
</linearGradient>
<linearGradient id="paint2_linear_3639_3238" x1="10" y1="17.025" x2="24.4405" y2="17.025" gradientUnits="userSpaceOnUse">
<stop offset="0.01" stop-color="#9C76AC"/>
<stop offset="1" stop-color="#7D6FAA"/>
</linearGradient>
<linearGradient id="paint3_linear_3639_3238" x1="20.0502" y1="20.8935" x2="39.6263" y2="23.1163" gradientUnits="userSpaceOnUse">
<stop offset="0.01" stop-color="#9C76AC"/>
<stop offset="1" stop-color="#7D6FAA"/>
</linearGradient>
<linearGradient id="paint4_linear_3639_3238" x1="24.8809" y1="19.0201" x2="29.2933" y2="19.0201" gradientUnits="userSpaceOnUse">
<stop offset="0.01" stop-color="#9C76AC"/>
<stop offset="1" stop-color="#7D6FAA"/>
</linearGradient>
<clipPath id="clip0_3639_3238">
<rect width="28" height="23" fill="white" transform="translate(10 11)"/>
</clipPath>
</defs>
</svg>
