<svg width="45" height="45" viewBox="0 0 45 45" fill="none" xmlns="http://www.w3.org/2000/svg">
<circle cx="22.5" cy="22.5" r="22.5" fill="url(#paint0_linear_3639_3243)"/>
<g clip-path="url(#clip0_3639_3243)">
<path d="M18.09 21.5201V17.8401C18.09 17.6201 17.91 17.4301 17.68 17.4301H13.41C13.19 17.4301 13 17.6101 13 17.8401V24.8501C13 25.0701 13.18 25.2601 13.41 25.2601H15.14C15.7 23.7201 16.74 22.4101 18.09 21.5201Z" fill="url(#paint1_linear_3639_3243)"/>
<path d="M31.0101 11H26.7401C26.5201 11 26.3301 11.18 26.3301 11.41V21.56C27.6501 22.44 28.6701 23.74 29.2101 25.25H31.0101C31.2301 25.25 31.4201 25.07 31.4201 24.84V11.41C31.4201 11.19 31.2401 11 31.0101 11Z" fill="url(#paint2_linear_3639_3243)"/>
<path d="M22.1699 20.3C23.0799 20.3 23.9399 20.47 24.7499 20.77V14.61C24.7499 14.39 24.5699 14.2 24.3399 14.2H20.0699C19.8499 14.2 19.6599 14.38 19.6599 14.61V20.74C20.4499 20.46 21.2899 20.3 22.1699 20.3Z" fill="url(#paint3_linear_3639_3243)"/>
<path d="M29.5999 33.54L26.9699 30.94C27.5699 30.03 27.9199 28.95 27.9199 27.78C27.9199 24.6 25.3399 22.02 22.1599 22.02C18.9799 22.02 16.3999 24.6 16.3999 27.78C16.3999 30.96 18.9799 33.54 22.1599 33.54C23.2999 33.54 24.3599 33.2 25.2499 32.62L27.8999 35.24C28.1299 35.47 28.4399 35.59 28.7399 35.59C29.0399 35.59 29.3599 35.47 29.5899 35.23C30.0499 34.76 30.0499 34 29.5899 33.54H29.5999ZM22.7499 30.92V31.61H21.6399V30.93C20.7799 30.73 20.2799 30.04 20.1899 29.02H21.3999C21.4599 29.51 21.7399 29.77 22.1799 29.77C22.6199 29.77 22.9099 29.52 22.9099 29.12C22.9099 28.8 22.7199 28.6 22.3099 28.48L21.5799 28.27C20.7399 28.04 20.2999 27.42 20.3099 26.5C20.3099 25.51 20.8099 24.84 21.6299 24.63V23.91H22.7399V24.64C23.5199 24.86 23.9899 25.52 24.0499 26.49H22.9199C22.8699 26.05 22.5899 25.77 22.1899 25.77C21.7899 25.77 21.4999 26.03 21.5099 26.41C21.5099 26.69 21.6699 26.9 22.0799 27.03L22.8699 27.26C23.7299 27.51 24.1399 28.05 24.1499 28.95C24.1499 29.97 23.5999 30.7 22.7499 30.93V30.92Z" fill="url(#paint4_linear_3639_3243)"/>
<g clip-path="url(#clip1_3639_3243)">
<path d="M18.09 21.5201V17.8401C18.09 17.6201 17.91 17.4301 17.68 17.4301H13.41C13.19 17.4301 13 17.6101 13 17.8401V24.8501C13 25.0701 13.18 25.2601 13.41 25.2601H15.14C15.7 23.7201 16.74 22.4101 18.09 21.5201Z" fill="white"/>
<path d="M31.0101 11H26.7401C26.5201 11 26.3301 11.18 26.3301 11.41V21.56C27.6501 22.44 28.6701 23.74 29.2101 25.25H31.0101C31.2301 25.25 31.4201 25.07 31.4201 24.84V11.41C31.4201 11.19 31.2401 11 31.0101 11Z" fill="white"/>
<path d="M22.1699 20.3C23.0799 20.3 23.9399 20.47 24.7499 20.77V14.61C24.7499 14.39 24.5699 14.2 24.3399 14.2H20.0699C19.8499 14.2 19.6599 14.38 19.6599 14.61V20.74C20.4499 20.46 21.2899 20.3 22.1699 20.3Z" fill="white"/>
<path d="M29.5999 33.54L26.9699 30.94C27.5699 30.03 27.9199 28.95 27.9199 27.78C27.9199 24.6 25.3399 22.02 22.1599 22.02C18.9799 22.02 16.3999 24.6 16.3999 27.78C16.3999 30.96 18.9799 33.54 22.1599 33.54C23.2999 33.54 24.3599 33.2 25.2499 32.62L27.8999 35.24C28.1299 35.47 28.4399 35.59 28.7399 35.59C29.0399 35.59 29.3599 35.47 29.5899 35.23C30.0499 34.76 30.0499 34 29.5899 33.54H29.5999ZM22.7499 30.92V31.61H21.6399V30.93C20.7799 30.73 20.2799 30.04 20.1899 29.02H21.3999C21.4599 29.51 21.7399 29.77 22.1799 29.77C22.6199 29.77 22.9099 29.52 22.9099 29.12C22.9099 28.8 22.7199 28.6 22.3099 28.48L21.5799 28.27C20.7399 28.04 20.2999 27.42 20.3099 26.5C20.3099 25.51 20.8099 24.84 21.6299 24.63V23.91H22.7399V24.64C23.5199 24.86 23.9899 25.52 24.0499 26.49H22.9199C22.8699 26.05 22.5899 25.77 22.1899 25.77C21.7899 25.77 21.4999 26.03 21.5099 26.41C21.5099 26.69 21.6699 26.9 22.0799 27.03L22.8699 27.26C23.7299 27.51 24.1399 28.05 24.1499 28.95C24.1499 29.97 23.5999 30.7 22.7499 30.93V30.92Z" fill="white"/>
</g>
</g>
<defs>
<linearGradient id="paint0_linear_3639_3243" x1="22.5" y1="0" x2="22.5" y2="45" gradientUnits="userSpaceOnUse">
<stop stop-color="#A192C5"/>
<stop offset="1" stop-color="#9B76AB"/>
</linearGradient>
<linearGradient id="paint1_linear_3639_3243" x1="13" y1="21.3401" x2="18.09" y2="21.3401" gradientUnits="userSpaceOnUse">
<stop offset="0.01" stop-color="#9B76AB"/>
<stop offset="1" stop-color="#7C6FAA"/>
</linearGradient>
<linearGradient id="paint2_linear_3639_3243" x1="26.3301" y1="18.13" x2="31.4101" y2="18.13" gradientUnits="userSpaceOnUse">
<stop offset="0.01" stop-color="#9B76AB"/>
<stop offset="1" stop-color="#7C6FAA"/>
</linearGradient>
<linearGradient id="paint3_linear_3639_3243" x1="19.6599" y1="17.49" x2="24.7499" y2="17.49" gradientUnits="userSpaceOnUse">
<stop offset="0.01" stop-color="#9B76AB"/>
<stop offset="1" stop-color="#7C6FAA"/>
</linearGradient>
<linearGradient id="paint4_linear_3639_3243" x1="16.4199" y1="28.81" x2="29.9599" y2="28.81" gradientUnits="userSpaceOnUse">
<stop offset="0.01" stop-color="#9B76AB"/>
<stop offset="1" stop-color="#7C6FAA"/>
</linearGradient>
<clipPath id="clip0_3639_3243">
<rect width="18.41" height="24.59" fill="white" transform="translate(13 11)"/>
</clipPath>
<clipPath id="clip1_3639_3243">
<rect width="18.41" height="24.59" fill="white" transform="translate(13 11)"/>
</clipPath>
</defs>
</svg>
