<svg width="45" height="45" viewBox="0 0 45 45" fill="none" xmlns="http://www.w3.org/2000/svg">
<circle cx="22.5" cy="22.5" r="22.5" fill="url(#paint0_linear_3639_3249)"/>
<g clip-path="url(#clip0_3639_3249)">
<path d="M10.62 24.5699H15.69C16.03 24.5699 16.31 24.8499 16.31 25.1899V31.6599H10V25.1899C10 24.8499 10.28 24.5699 10.62 24.5699Z" fill="url(#paint1_linear_3639_3249)"/>
<path d="M31.0101 31.66H25.5601V26.61H28.3101L31.0101 31.66Z" fill="url(#paint2_linear_3639_3249)"/>
<path d="M29.72 17.99H25.78V21.93C27.96 21.93 29.72 20.17 29.72 17.99Z" fill="url(#paint3_linear_3639_3249)"/>
<path d="M19.27 19.23C19.27 16.66 20.53 14.4 22.46 13H18.59C18.14 13 17.78 13.36 17.78 13.81V31.66H24.08V26.36C21.26 25.22 19.27 22.46 19.27 19.23Z" fill="url(#paint4_linear_3639_3249)"/>
<path d="M35.1 28.66L31.61 23.35C32.58 22.25 33.19 20.82 33.19 19.24C33.19 15.8 30.4 13.01 26.96 13.01C23.52 13.01 20.73 15.8 20.73 19.24C20.73 22.68 23.52 25.47 26.96 25.47C27.46 25.47 27.95 25.39 28.42 25.28C28.42 25.3 28.43 25.31 28.44 25.33L31.97 30.71C32.33 31.26 32.92 31.55 33.53 31.55C33.88 31.55 34.24 31.45 34.55 31.24C35.41 30.67 35.65 29.52 35.09 28.66H35.1ZM23.07 19.23C23.07 17.08 24.81 15.34 26.96 15.34C29.11 15.34 30.85 17.08 30.85 19.23C30.85 21.38 29.11 23.12 26.96 23.12C24.81 23.12 23.07 21.38 23.07 19.23Z" fill="url(#paint5_linear_3639_3249)"/>
<g clip-path="url(#clip1_3639_3249)">
<path d="M10.62 24.5699H15.69C16.03 24.5699 16.31 24.8499 16.31 25.1899V31.6599H10V25.1899C10 24.8499 10.28 24.5699 10.62 24.5699Z" fill="white"/>
<path d="M31.0101 31.66H25.5601V26.61H28.3101L31.0101 31.66Z" fill="white"/>
<path d="M29.72 17.99H25.78V21.93C27.96 21.93 29.72 20.17 29.72 17.99Z" fill="white"/>
<path d="M19.27 19.23C19.27 16.66 20.53 14.4 22.46 13H18.59C18.14 13 17.78 13.36 17.78 13.81V31.66H24.08V26.36C21.26 25.22 19.27 22.46 19.27 19.23Z" fill="white"/>
<path d="M35.1 28.66L31.61 23.35C32.58 22.25 33.19 20.82 33.19 19.24C33.19 15.8 30.4 13.01 26.96 13.01C23.52 13.01 20.73 15.8 20.73 19.24C20.73 22.68 23.52 25.47 26.96 25.47C27.46 25.47 27.95 25.39 28.42 25.28C28.42 25.3 28.43 25.31 28.44 25.33L31.97 30.71C32.33 31.26 32.92 31.55 33.53 31.55C33.88 31.55 34.24 31.45 34.55 31.24C35.41 30.67 35.65 29.52 35.09 28.66H35.1ZM23.07 19.23C23.07 17.08 24.81 15.34 26.96 15.34C29.11 15.34 30.85 17.08 30.85 19.23C30.85 21.38 29.11 23.12 26.96 23.12C24.81 23.12 23.07 21.38 23.07 19.23Z" fill="white"/>
</g>
</g>
<defs>
<linearGradient id="paint0_linear_3639_3249" x1="22.5" y1="0" x2="22.5" y2="45" gradientUnits="userSpaceOnUse">
<stop stop-color="#A192C5"/>
<stop offset="1" stop-color="#9B76AB"/>
</linearGradient>
<linearGradient id="paint1_linear_3639_3249" x1="10" y1="28.1199" x2="16.3" y2="28.1199" gradientUnits="userSpaceOnUse">
<stop offset="0.01" stop-color="#9475AB"/>
<stop offset="1" stop-color="#7871AB"/>
</linearGradient>
<linearGradient id="paint2_linear_3639_3249" x1="25.5601" y1="29.14" x2="31.0101" y2="29.14" gradientUnits="userSpaceOnUse">
<stop offset="0.01" stop-color="#9475AB"/>
<stop offset="1" stop-color="#7871AB"/>
</linearGradient>
<linearGradient id="paint3_linear_3639_3249" x1="25.78" y1="19.96" x2="29.72" y2="19.96" gradientUnits="userSpaceOnUse">
<stop offset="0.01" stop-color="#9475AB"/>
<stop offset="1" stop-color="#7871AB"/>
</linearGradient>
<linearGradient id="paint4_linear_3639_3249" x1="17.78" y1="22.33" x2="24.08" y2="22.33" gradientUnits="userSpaceOnUse">
<stop offset="0.01" stop-color="#9475AB"/>
<stop offset="1" stop-color="#7871AB"/>
</linearGradient>
<linearGradient id="paint5_linear_3639_3249" x1="20.73" y1="22.27" x2="35.4" y2="22.27" gradientUnits="userSpaceOnUse">
<stop offset="0.01" stop-color="#9475AB"/>
<stop offset="1" stop-color="#7871AB"/>
</linearGradient>
<clipPath id="clip0_3639_3249">
<rect width="25.4" height="18.66" fill="white" transform="translate(10 13)"/>
</clipPath>
<clipPath id="clip1_3639_3249">
<rect width="25.4" height="18.66" fill="white" transform="translate(10 13)"/>
</clipPath>
</defs>
</svg>
