<svg width="45" height="45" viewBox="0 0 45 45" fill="none" xmlns="http://www.w3.org/2000/svg">
<circle cx="22.5" cy="22.5" r="22.5" fill="url(#paint0_linear_3639_3251)"/>
<g clip-path="url(#clip0_3639_3251)">
<path d="M33.8621 31.752C33.5376 30.8636 33.1157 29.9671 32.5396 29.2322C31.136 27.4635 29.213 26.7367 26.9656 26.769C26.5518 26.769 26.0569 26.7286 25.7323 26.5186C25.14 26.1229 25.0995 23.5628 25.6106 23.0459C25.6268 23.0297 25.6512 23.0217 25.6593 22.9974C26.3489 22.0121 27.0386 21.0269 27.7283 20.0496C27.85 19.872 27.9798 19.662 28.1583 19.5731C29.1481 19.1128 29.7891 17.6026 29.1481 16.7546C28.637 16.0681 28.783 15.4543 28.8479 14.7759C28.9777 13.4191 28.9453 12.0785 28.2962 10.8267C27.8986 10.0594 27.3388 9.51027 26.3976 9.4295C26.1055 9.40528 25.8053 9.20337 25.5457 9.03377C23.2009 7.45085 20.3043 7.71736 18.3165 9.72832C16.783 11.2789 16.1988 13.1688 16.4098 15.3089C16.4585 15.8016 16.426 16.2054 16.0771 16.6334C15.5579 17.2714 15.7932 18.9513 16.5396 19.2986C17.278 19.6378 17.4321 20.2596 17.7891 20.8169C18.1786 21.4307 18.5356 22.1171 19.0792 22.5775C19.8094 23.1832 19.9311 23.8777 19.9149 24.7338C19.8743 26.664 19.7769 26.7932 17.8378 26.8094C14.6735 26.8336 12.1826 28.6507 11.2171 31.6308C10.7952 32.9392 11.3307 33.6822 12.71 33.6822C15.9717 33.6822 19.2252 33.6822 22.4869 33.6822C23.3794 33.6822 24.28 33.6822 25.1725 33.6822C27.5822 33.6822 29.9919 33.6822 32.4017 33.6822C33.6755 33.6822 34.2759 32.9553 33.854 31.7924L33.8621 31.752Z" fill="white"/>
<path d="M20.4421 29.9753C20.0121 30.7748 19.5658 31.5743 19.1277 32.3739C18.8031 32.9634 18.4786 33.553 18.1541 34.1425C17.7889 34.8048 17.2453 35.2732 16.5638 35.5882C15.7768 35.9435 14.9492 36.0566 14.0891 35.9678L10.9086 34.2395C10.6165 34.0053 10.4056 33.7064 10.2839 33.3511C10.1054 32.8665 10.0486 32.3658 10.0242 31.8489C9.99178 31.1544 10.0242 30.4598 10.0648 29.7653C10.1135 28.9738 10.1541 28.1823 10.1865 27.3909C10.1946 27.1486 10.1541 26.9063 10.1865 26.664C10.2271 26.3491 10.3488 26.0906 10.5678 25.9049C11.2332 25.3153 12.3042 25.7272 12.5557 26.5833C12.6368 26.8579 12.7098 27.1325 12.7829 27.407C12.7991 27.4636 12.7991 27.512 12.8072 27.5686H12.8478C12.8721 27.5282 12.8964 27.4797 12.9208 27.4393C13.9269 25.6061 14.9411 23.7808 15.939 21.9476C16.2392 21.3903 16.8964 21.1803 17.3995 21.3661C17.4157 21.3661 17.4401 21.3661 17.4563 21.3661L17.7321 21.5115C17.8457 21.6487 17.9918 21.7699 18.081 21.9233C18.292 22.2868 18.3001 22.6583 18.0973 23.0298C17.7078 23.7405 17.3184 24.4431 16.9289 25.1538L16.8478 25.2992C17.5942 25.3719 17.9999 25.7757 18.0973 26.5106C18.5273 26.4783 18.9086 26.5833 19.1926 26.9225C19.4766 27.2617 19.5577 27.6493 19.436 28.0935C19.436 28.0935 19.4441 28.0935 19.4522 28.0935C20.507 28.1339 20.9614 29.0546 20.4664 29.9753H20.4421ZM17.724 33.6741C18.4786 32.3173 19.225 30.9444 19.9715 29.5795C20.0039 29.5311 20.0202 29.4665 20.0364 29.4099C20.0932 29.1353 19.9472 28.8527 19.6875 28.7396C19.4685 28.6508 19.1277 28.6508 18.9573 28.9415C18.7463 29.3049 18.5435 29.6764 18.3244 30.0399C18.292 30.0964 18.2352 30.1529 18.1784 30.1772C18.0567 30.2337 17.9431 30.2095 17.8457 30.1045C17.7484 29.9914 17.7403 29.8703 17.8133 29.741C18.1297 29.1596 18.4543 28.57 18.7707 27.9885C18.8194 27.8916 18.8518 27.7785 18.8518 27.6736C18.8518 27.407 18.6571 27.1728 18.3893 27.1082C18.1216 27.0355 17.8701 27.1405 17.724 27.407C17.4887 27.8189 17.2697 28.2227 17.0344 28.6346C16.937 28.8123 16.7829 28.8688 16.6125 28.78C16.4502 28.6911 16.4096 28.5215 16.5151 28.3439C16.791 27.8593 17.0831 27.3909 17.3184 26.8902C17.3508 26.8256 17.3995 26.7529 17.4157 26.6802C17.4969 26.3491 17.3427 26.0987 17.0993 25.9776C16.864 25.8645 16.5232 25.8726 16.3366 26.1875C16.1257 26.551 15.9228 26.9144 15.72 27.2778C15.6551 27.399 15.5171 27.4555 15.3873 27.4313C15.2737 27.407 15.1601 27.2859 15.1601 27.1567C15.1601 27.084 15.1845 27.0113 15.2169 26.9467C15.9715 25.5657 16.7342 24.1847 17.4887 22.8117C17.5131 22.7633 17.5455 22.7148 17.5618 22.6583C17.6429 22.3837 17.4887 22.0526 17.2453 21.9556C16.9046 21.8183 16.5881 21.9314 16.4177 22.2464C15.8498 23.2882 15.2737 24.33 14.6977 25.3719C14.4543 25.8241 14.2027 26.2683 13.9593 26.7206C13.6267 27.3182 13.3021 27.9239 12.9695 28.5215C12.864 28.7154 12.6693 28.7558 12.507 28.6104C12.4502 28.5619 12.4096 28.4812 12.3934 28.4085C12.2798 28.0289 12.1743 27.6412 12.0689 27.2617C12.0121 27.0517 11.9553 26.8336 11.8985 26.6237C11.8173 26.3652 11.6226 26.2118 11.363 26.1956C11.1196 26.1795 10.8924 26.3006 10.8113 26.5267C10.7626 26.6721 10.7463 26.8256 10.7382 26.979C10.7382 27.3101 10.7626 27.6412 10.7463 27.9724C10.6977 29.0223 10.6246 30.0722 10.5922 31.1221C10.5678 31.7924 10.5922 32.4627 10.8113 33.1088C10.9086 33.4157 11.079 33.6741 11.3711 33.8357C12.0202 34.191 12.6693 34.5464 13.3184 34.8936C14.1378 35.3378 15.1196 35.4751 16.0039 35.1601C16.0283 35.1521 16.0526 35.144 16.0851 35.1278C16.7829 34.8613 17.3508 34.3283 17.7078 33.6822L17.724 33.6741Z" fill="url(#paint1_linear_3639_3251)"/>
<path d="M19.9796 29.5875C19.2332 30.9524 18.4867 32.3173 17.7322 33.6821C17.367 34.3363 16.8072 34.8613 16.1094 35.1278C16.0851 35.1359 16.0526 35.1439 16.0283 35.1601C15.152 35.4751 14.1703 35.3378 13.3427 34.8936C12.6936 34.5382 12.0445 34.1909 11.3954 33.8356C11.1033 33.6741 10.933 33.4156 10.8356 33.1087C10.6246 32.4626 10.5922 31.7923 10.6165 31.122C10.6571 30.0721 10.7301 29.0222 10.7707 27.9723C10.7869 27.6412 10.7545 27.3101 10.7626 26.9789C10.7626 26.8255 10.7788 26.672 10.8356 26.5267C10.9167 26.3086 11.1439 26.1875 11.3873 26.1956C11.647 26.2117 11.8417 26.3652 11.9228 26.6236C11.9877 26.8336 12.0364 27.0516 12.0932 27.2616C12.1987 27.6493 12.3042 28.0288 12.4178 28.4084C12.4421 28.4811 12.4745 28.5619 12.5313 28.6103C12.6936 28.7476 12.8883 28.7072 12.9938 28.5215C13.3265 27.9239 13.651 27.3181 13.9837 26.7205C14.2271 26.2682 14.4786 25.8241 14.722 25.3718C15.2981 24.33 15.866 23.2881 16.4421 22.2463C16.6125 21.9314 16.9289 21.8183 17.2697 21.9556C17.5131 22.0525 17.6672 22.3917 17.5861 22.6582C17.5699 22.7147 17.5374 22.7632 17.5131 22.8117C16.7585 24.1927 15.9958 25.5737 15.2413 26.9466C15.2088 27.0112 15.1845 27.0839 15.1845 27.1566C15.1845 27.2858 15.29 27.407 15.4117 27.4312C15.5415 27.4554 15.6794 27.3908 15.7443 27.2778C15.9472 26.9143 16.15 26.5509 16.361 26.1875C16.5476 25.8725 16.8802 25.8644 17.1236 25.9775C17.367 26.0986 17.5293 26.349 17.4401 26.6801C17.4238 26.7528 17.3752 26.8174 17.3427 26.8901C17.1074 27.3908 16.8153 27.8673 16.5395 28.3438C16.434 28.5296 16.4745 28.6992 16.6368 28.7799C16.7991 28.8688 16.9532 28.8203 17.0587 28.6346C17.2859 28.2227 17.5131 27.8108 17.7484 27.407C17.8944 27.1485 18.1459 27.0436 18.4137 27.1082C18.6733 27.1808 18.8762 27.407 18.8762 27.6735C18.8762 27.7785 18.8437 27.8996 18.795 27.9885C18.4786 28.578 18.1541 29.1595 17.8376 29.741C17.7727 29.8702 17.7727 29.9913 17.8701 30.1044C17.9674 30.2094 18.081 30.2256 18.2027 30.1771C18.2595 30.1529 18.3163 30.0963 18.3488 30.0398C18.5597 29.6764 18.7707 29.3049 18.9816 28.9414C19.152 28.6426 19.4928 28.6426 19.7119 28.7395C19.9715 28.8445 20.1175 29.1353 20.0608 29.4099C20.0445 29.4664 20.0283 29.531 19.9958 29.5795L19.9796 29.5875Z" fill="white"/>
</g>
<defs>
<linearGradient id="paint0_linear_3639_3251" x1="22.5" y1="0" x2="22.5" y2="45" gradientUnits="userSpaceOnUse">
<stop stop-color="#A192C5"/>
<stop offset="1" stop-color="#9B76AB"/>
</linearGradient>
<linearGradient id="paint1_linear_3639_3251" x1="10.5273" y1="25.816" x2="19.9028" y2="30.9647" gradientUnits="userSpaceOnUse">
<stop offset="0.01" stop-color="#9C76AC"/>
<stop offset="1" stop-color="#7D6FAA"/>
</linearGradient>
<clipPath id="clip0_3639_3251">
<rect width="24" height="28" fill="white" transform="translate(10 8)"/>
</clipPath>
</defs>
</svg>
