<svg width="45" height="45" viewBox="0 0 45 45" fill="none" xmlns="http://www.w3.org/2000/svg">
<circle cx="22.5" cy="22.5" r="21.75" fill="white" stroke="#CCAFD9" stroke-width="1.5"/>
<g clip-path="url(#clip0_3639_3236)">
<path d="M34.8712 31.7463C34.5492 30.8955 34.1305 30.037 33.5589 29.3332C32.1661 27.6394 30.258 26.9433 28.0279 26.9743C27.6173 26.9743 27.1261 26.9356 26.8041 26.7345C26.2164 26.3555 26.1761 23.9038 26.6833 23.4088C26.6994 23.3933 26.7236 23.3856 26.7317 23.3624C27.416 22.4188 28.1003 21.4753 28.7847 20.5394C28.9054 20.3693 29.0342 20.1682 29.2114 20.0831C30.1936 19.6423 30.8296 18.196 30.1936 17.3839C29.6864 16.7265 29.8313 16.1387 29.8957 15.489C30.0245 14.1897 29.9923 12.9058 29.3482 11.707C28.9537 10.9723 28.3982 10.4463 27.4643 10.369C27.1745 10.3458 26.8766 10.1524 26.6189 9.99003C24.2922 8.47413 21.418 8.72936 19.4455 10.6552C17.9239 12.1401 17.3442 13.9499 17.5535 15.9995C17.6018 16.4713 17.5696 16.858 17.2234 17.2679C16.7082 17.8789 16.9416 19.4876 17.6823 19.8202C18.415 20.145 18.5679 20.7405 18.9222 21.2742C19.3086 21.862 19.6629 22.5194 20.2023 22.9602C20.9269 23.5403 21.0477 24.2054 21.0316 25.0253C20.9913 26.8737 20.8947 26.9975 18.9705 27.0129C15.8306 27.0361 13.359 28.7763 12.4009 31.6302C11.9822 32.8832 12.5136 33.5947 13.8823 33.5947C17.1188 33.5947 20.3472 33.5947 23.5837 33.5947C24.4693 33.5947 25.363 33.5947 26.2486 33.5947C28.6397 33.5947 31.0309 33.5947 33.422 33.5947C34.686 33.5947 35.2818 32.8986 34.8632 31.7849L34.8712 31.7463Z" fill="url(#paint0_linear_3639_3236)"/>
<path d="M21.5548 30.0447C21.1281 30.8104 20.6853 31.576 20.2506 32.3417C19.9285 32.9063 19.6065 33.4709 19.2845 34.0355C18.9222 34.6697 18.3827 35.1183 17.7065 35.4199C16.9255 35.7602 16.1043 35.8685 15.2509 35.7834L12.0949 34.1283C11.8051 33.904 11.5958 33.6179 11.475 33.2776C11.2979 32.8135 11.2415 32.334 11.2174 31.839C11.1852 31.1739 11.2174 30.5087 11.2576 29.8436C11.3059 29.0856 11.3462 28.3277 11.3784 27.5697C11.3864 27.3377 11.3462 27.1057 11.3784 26.8737C11.4186 26.572 11.5394 26.3245 11.7568 26.1467C12.417 25.5821 13.4797 25.9765 13.7293 26.7963C13.8098 27.0593 13.8822 27.3223 13.9547 27.5852C13.9708 27.6394 13.9708 27.6858 13.9789 27.7399H14.0191C14.0433 27.7012 14.0674 27.6548 14.0916 27.6162C15.0899 25.8605 16.0963 24.1126 17.0865 22.3569C17.3844 21.8233 18.0366 21.6222 18.5357 21.8001C18.5518 21.8001 18.576 21.8001 18.5921 21.8001L18.8658 21.9393C18.9785 22.0707 19.1234 22.1868 19.212 22.3337C19.4213 22.6817 19.4294 23.0375 19.2281 23.3933C18.8417 24.0739 18.4552 24.7468 18.0688 25.4274L17.9883 25.5666C18.7289 25.6362 19.1315 26.0229 19.2281 26.7267C19.6548 26.6958 20.0332 26.7963 20.315 27.1212C20.5968 27.446 20.6773 27.8172 20.5565 28.2426C20.5565 28.2426 20.5646 28.2426 20.5726 28.2426C21.6192 28.2813 22.0701 29.163 21.579 30.0447H21.5548ZM18.8578 33.5869C19.6065 32.2876 20.3472 30.9728 21.0879 29.6657C21.1201 29.6193 21.1362 29.5574 21.1523 29.5033C21.2086 29.2403 21.0637 28.9696 20.8061 28.8614C20.5887 28.7763 20.2506 28.7763 20.0815 29.0547C19.8722 29.4027 19.6709 29.7585 19.4535 30.1066C19.4213 30.1607 19.365 30.2148 19.3086 30.238C19.1878 30.2922 19.0751 30.269 18.9785 30.1684C18.8819 30.0602 18.8739 29.9441 18.9463 29.8204C19.2603 29.2635 19.5823 28.6989 19.8963 28.1421C19.9446 28.0493 19.9768 27.941 19.9768 27.8404C19.9768 27.5852 19.7836 27.3609 19.5179 27.2991C19.2523 27.2294 19.0027 27.33 18.8578 27.5852C18.6243 27.9797 18.4069 28.3664 18.1734 28.7608C18.0768 28.931 17.9238 28.9851 17.7548 28.9C17.5938 28.8149 17.5535 28.6525 17.6582 28.4824C17.9319 28.0183 18.2217 27.5697 18.4552 27.0902C18.4874 27.0284 18.5357 26.9587 18.5518 26.8891C18.6323 26.572 18.4794 26.3323 18.2378 26.2163C18.0044 26.108 17.6662 26.1157 17.481 26.4174C17.2717 26.7654 17.0704 27.1134 16.8692 27.4615C16.8048 27.5775 16.6679 27.6316 16.5391 27.6084C16.4264 27.5852 16.3136 27.4692 16.3136 27.3455C16.3136 27.2758 16.3378 27.2062 16.37 27.1444C17.1187 25.8218 17.8755 24.4993 18.6243 23.1845C18.6484 23.1381 18.6806 23.0917 18.6967 23.0375C18.7772 22.7746 18.6243 22.4575 18.3827 22.3646C18.0446 22.2332 17.7306 22.3414 17.5615 22.6431C16.998 23.6408 16.4264 24.6385 15.8547 25.6362C15.6132 26.0693 15.3636 26.4947 15.1221 26.9278C14.792 27.5001 14.47 28.0802 14.1399 28.6525C14.0352 28.8382 13.842 28.8768 13.681 28.7376C13.6246 28.6912 13.5844 28.6139 13.5683 28.5443C13.4555 28.1807 13.3509 27.8095 13.2462 27.446C13.1899 27.2449 13.1335 27.0361 13.0771 26.835C12.9966 26.5875 12.8034 26.4406 12.5458 26.4251C12.3043 26.4096 12.0788 26.5256 11.9983 26.7422C11.95 26.8814 11.9339 27.0284 11.9259 27.1753C11.9259 27.4924 11.95 27.8095 11.9339 28.1266C11.8856 29.132 11.8131 30.1375 11.7809 31.1429C11.7568 31.7849 11.7809 32.4268 11.9983 33.0455C12.0949 33.3394 12.264 33.5869 12.5538 33.7416C13.1979 34.0819 13.842 34.4222 14.4861 34.7548C15.2992 35.1802 16.2734 35.3117 17.1509 35.01C17.1751 35.0023 17.1993 34.9946 17.2315 34.9791C17.9238 34.7239 18.4874 34.2134 18.8417 33.5947L18.8578 33.5869Z" fill="url(#paint1_linear_3639_3236)"/>
<path d="M21.0959 29.6734C20.3552 30.9805 19.6145 32.2876 18.8658 33.5947C18.5035 34.2211 17.948 34.7239 17.2556 34.9791C17.2314 34.9868 17.1992 34.9946 17.1751 35.01C16.3056 35.3117 15.3314 35.1802 14.5102 34.7548C13.8661 34.4145 13.2221 34.0819 12.578 33.7416C12.2881 33.5869 12.1191 33.3394 12.0225 33.0455C11.8131 32.4268 11.7809 31.7849 11.8051 31.1429C11.8453 30.1375 11.9178 29.132 11.958 28.1266C11.9741 27.8095 11.9419 27.4924 11.95 27.1753C11.95 27.0284 11.9661 26.8814 12.0225 26.7422C12.103 26.5334 12.3284 26.4174 12.5699 26.4251C12.8276 26.4406 13.0208 26.5875 13.1013 26.835C13.1657 27.0361 13.214 27.2449 13.2704 27.446C13.375 27.8172 13.4797 28.1807 13.5924 28.5442C13.6166 28.6139 13.6488 28.6912 13.7051 28.7376C13.8661 28.8691 14.0594 28.8304 14.164 28.6525C14.4941 28.0802 14.8161 27.5001 15.1462 26.9278C15.3878 26.4947 15.6373 26.0693 15.8789 25.6362C16.4505 24.6385 17.0141 23.6408 17.5857 22.6431C17.7548 22.3414 18.0687 22.2332 18.4069 22.3646C18.6484 22.4575 18.8014 22.7823 18.7209 23.0375C18.7048 23.0917 18.6726 23.1381 18.6484 23.1845C17.8997 24.507 17.1429 25.8296 16.3941 27.1444C16.3619 27.2062 16.3378 27.2758 16.3378 27.3455C16.3378 27.4692 16.4424 27.5852 16.5632 27.6084C16.692 27.6316 16.8289 27.5697 16.8933 27.4615C17.0946 27.1134 17.2959 26.7654 17.5052 26.4174C17.6904 26.1157 18.0204 26.108 18.262 26.2163C18.5035 26.3323 18.6645 26.572 18.576 26.8891C18.5599 26.9587 18.5116 27.0206 18.4793 27.0902C18.2459 27.5697 17.956 28.0261 17.6823 28.4824C17.5776 28.6603 17.6179 28.8227 17.7789 28.9C17.9399 28.9851 18.0929 28.9387 18.1976 28.7608C18.423 28.3664 18.6484 27.9719 18.8819 27.5852C19.0268 27.3377 19.2764 27.2372 19.5421 27.299C19.7997 27.3687 20.001 27.5852 20.001 27.8404C20.001 27.941 19.9688 28.057 19.9205 28.1421C19.6065 28.7067 19.2844 29.2635 18.9705 29.8204C18.9061 29.9441 18.9061 30.0601 19.0027 30.1684C19.0993 30.269 19.212 30.2844 19.3328 30.238C19.3891 30.2148 19.4455 30.1607 19.4777 30.1066C19.687 29.7585 19.8963 29.4027 20.1056 29.0547C20.2747 28.7685 20.6129 28.7685 20.8302 28.8614C21.0879 28.9619 21.2328 29.2403 21.1764 29.5033C21.1603 29.5574 21.1442 29.6193 21.112 29.6657L21.0959 29.6734Z" fill="url(#paint2_linear_3639_3236)"/>
<path d="M18.8497 21.9393C18.9624 22.0707 19.1073 22.1868 19.1959 22.3337C19.4052 22.6817 19.4133 23.0375 19.212 23.3933C18.8256 24.0739 18.4391 24.7468 18.0527 25.4274L17.9722 25.5666C18.7128 25.6362 19.1154 26.0229 19.212 26.7267C19.6387 26.6958 20.0171 26.7963 20.2989 27.1212C20.5807 27.446 20.6612 27.8172 20.5404 28.2426C20.5404 28.2426 20.5485 28.2426 20.5565 28.2426C21.6031 28.2813 22.054 29.163 21.5629 30.0447C21.1362 30.8104 20.6934 31.576 20.2586 32.3417C19.9366 32.9063 19.6146 33.4709 19.2925 34.0355C18.9302 34.6697 18.3908 35.1183 17.7145 35.4199C16.9336 35.7602 16.1124 35.8685 15.259 35.7834L12.103 34.1283C11.8131 33.904 11.6038 33.6179 11.4831 33.2776C11.3059 32.8135 11.2496 32.334 11.2254 31.839C11.1932 31.1739 11.2254 30.5087 11.2657 29.8436C11.314 29.0856 11.3542 28.3277 11.3864 27.5697C11.3945 27.3377 11.3542 27.1057 11.3864 26.8737C11.4267 26.572 11.5475 26.3245 11.7648 26.1467C12.425 25.5821 13.4878 25.9765 13.7373 26.7963C13.8178 27.0593 13.8903 27.3223 13.9628 27.5852C13.9789 27.6394 13.9789 27.6858 13.9869 27.7399H14.0272C14.0513 27.7012 14.0755 27.6548 14.0996 27.6162C15.098 25.8605 16.1043 24.1126 17.0946 22.3569C17.3925 21.8233 18.0446 21.6222 18.5438 21.8001C18.5599 21.8001 18.584 21.8001 18.6001 21.8001L18.8739 21.9393H18.8497Z" stroke="white" stroke-width="0.5" stroke-miterlimit="10"/>
</g>
<defs>
<linearGradient id="paint0_linear_3639_3236" x1="12.264" y1="21.2819" x2="35" y2="21.2819" gradientUnits="userSpaceOnUse">
<stop offset="0.01" stop-color="#9C76AC"/>
<stop offset="1" stop-color="#7D6FAA"/>
</linearGradient>
<linearGradient id="paint1_linear_3639_3236" x1="11.7246" y1="26.0616" x2="20.8636" y2="31.2664" gradientUnits="userSpaceOnUse">
<stop offset="0.01" stop-color="#9C76AC"/>
<stop offset="1" stop-color="#7D6FAA"/>
</linearGradient>
<linearGradient id="paint2_linear_3639_3236" x1="11.8051" y1="28.7376" x2="21.1684" y2="28.7376" gradientUnits="userSpaceOnUse">
<stop offset="0.01" stop-color="#9C76AC"/>
<stop offset="1" stop-color="#7D6FAA"/>
</linearGradient>
<clipPath id="clip0_3639_3236">
<rect width="24" height="27" fill="white" transform="translate(11 9)"/>
</clipPath>
</defs>
</svg>
