<svg width="45" height="45" viewBox="0 0 45 45" fill="none" xmlns="http://www.w3.org/2000/svg">
<circle cx="22.5" cy="22.5" r="21.75" fill="white" stroke="#CCAFD9" stroke-width="1.5"/>
<g clip-path="url(#clip0_3639_3235)">
<path d="M33.88 15.66L32.67 14.29C32.51 14.11 32.29 14.01 32.05 14.01H20.37L21.83 15.66H33.88Z" fill="url(#paint0_linear_3639_3235)"/>
<path d="M30.95 30.9C30.28 31.35 29.48 31.61 28.61 31.61C26.29 31.61 24.41 29.73 24.41 27.4C24.41 25.07 26.29 23.2 28.61 23.2C30.93 23.2 32.82 25.08 32.82 27.4C32.82 28.22 32.58 28.98 32.17 29.63L33.89 31.62V17.99C33.89 17.63 33.6 17.33 33.23 17.33H22.5C21.97 17.33 21.47 17.11 21.12 16.72L19.39 14.79C18.94 14.29 18.3 14 17.63 14H13.07C12.48 14 12 14.48 12 15.07V32.44C12 32.8 12.29 33.1 12.66 33.1H32.84L30.94 30.9H30.95ZM17.37 15.22C17.95 15.22 18.42 15.69 18.42 16.27C18.42 16.85 17.95 17.32 17.37 17.32C16.79 17.32 16.32 16.85 16.32 16.27C16.32 15.69 16.79 15.22 17.37 15.22ZM13.21 16.27C13.21 15.69 13.68 15.22 14.26 15.22C14.84 15.22 15.31 15.69 15.31 16.27C15.31 16.85 14.84 17.32 14.26 17.32C13.68 17.32 13.21 16.85 13.21 16.27ZM17.95 25.86C18.35 25.86 18.68 26.18 18.68 26.59C18.68 27 18.36 27.32 17.95 27.32C16.77 27.32 15.87 25.97 15.71 24.11H14.97C14.65 24.11 14.39 23.85 14.39 23.53C14.39 23.21 14.65 22.95 14.97 22.95H15.71C15.87 21.09 16.77 19.74 17.95 19.74C18.35 19.74 18.68 20.06 18.68 20.47C18.68 20.88 18.36 21.2 17.95 21.2C17.74 21.2 17.13 22.01 17.13 23.54C17.13 25.07 17.74 25.88 17.95 25.88V25.86ZM24.98 20.87C25.77 20.87 26.41 21.34 26.41 21.92C26.41 22.5 25.77 22.97 24.98 22.97C24.19 22.97 23.55 22.5 23.55 21.92C23.55 21.34 24.19 20.87 24.98 20.87ZM21.05 20.87C21.84 20.87 22.48 21.34 22.48 21.92C22.48 22.5 21.84 22.97 21.05 22.97C20.26 22.97 19.62 22.5 19.62 21.92C19.62 21.34 20.26 20.87 21.05 20.87ZM21.05 29.25C20.26 29.25 19.62 28.78 19.62 28.2C19.62 27.62 20.26 27.15 21.05 27.15C21.84 27.15 22.48 27.62 22.48 28.2C22.48 28.78 21.84 29.25 21.05 29.25ZM23.01 26.03H20.74C20.21 26.03 19.77 25.6 19.77 25.06C19.77 24.52 20.2 24.09 20.74 24.09H23.01C23.54 24.09 23.98 24.52 23.98 25.06C23.98 25.6 23.55 26.03 23.01 26.03Z" fill="url(#paint1_linear_3639_3235)"/>
<path d="M28.6 29.91C29.9863 29.91 31.11 28.7862 31.11 27.4C31.11 26.0138 29.9863 24.89 28.6 24.89C27.2138 24.89 26.09 26.0138 26.09 27.4C26.09 28.7862 27.2138 29.91 28.6 29.91Z" fill="url(#paint2_linear_3639_3235)"/>
</g>
<defs>
<linearGradient id="paint0_linear_3639_3235" x1="20.37" y1="14.84" x2="33.88" y2="14.84" gradientUnits="userSpaceOnUse">
<stop offset="0.01" stop-color="#9475AB"/>
<stop offset="1" stop-color="#7871AB"/>
</linearGradient>
<linearGradient id="paint1_linear_3639_3235" x1="12" y1="23.55" x2="13" y2="23.55" gradientUnits="userSpaceOnUse">
<stop offset="0.01" stop-color="#9475AB"/>
<stop offset="1" stop-color="#7871AB"/>
</linearGradient>
<linearGradient id="paint2_linear_3639_3235" x1="26.1" y1="27.4" x2="31.11" y2="27.4" gradientUnits="userSpaceOnUse">
<stop offset="0.01" stop-color="#9475AB"/>
<stop offset="1" stop-color="#7871AB"/>
</linearGradient>
<clipPath id="clip0_3639_3235">
<rect width="21.88" height="19.09" fill="white" transform="translate(12 14)"/>
</clipPath>
</defs>
</svg>
