<svg width="45" height="45" viewBox="0 0 45 45" fill="none" xmlns="http://www.w3.org/2000/svg">
<circle cx="22.5" cy="22.5" r="21.75" stroke="#CCAFD9" stroke-width="1.5"/>
<g clip-path="url(#clip0_3639_3237)">
<path d="M22.4961 35.4177C29.63 35.4177 35.4132 32.6755 35.4132 29.2927C35.4132 25.9099 29.63 23.1676 22.4961 23.1676C15.3622 23.1676 9.57904 25.9099 9.57904 29.2927C9.57904 32.6755 15.3622 35.4177 22.4961 35.4177Z" stroke="url(#paint0_linear_3639_3237)" stroke-width="1.51" stroke-miterlimit="10"/>
<path d="M12.2119 30.9695L17.1533 22.9735C18.1647 21.3278 19.7012 20.3884 21.3535 20.3884H23.6389C25.2911 20.3884 26.8276 21.3278 27.839 22.9735L32.7804 30.9695H12.2119Z" fill="url(#paint1_linear_3639_3237)"/>
<path d="M23.6388 20.7766C25.1521 20.7766 26.5728 21.6615 27.5147 23.1753L32.0932 30.5813H12.9068L17.4853 23.1753C18.4195 21.6615 19.8479 20.7766 21.3612 20.7766H23.6466M23.6466 20.0002H21.3612C19.5931 20.0002 17.9022 21.0327 16.829 22.7717L12.2505 30.1776L11.517 31.3654H33.4753L32.7418 30.1776L28.1633 22.7717C27.0901 21.0405 25.3992 20.0002 23.6311 20.0002H23.6466Z" fill="white"/>
<path d="M22.4961 19.5267C25.3872 19.5267 27.7309 17.1702 27.7309 14.2634C27.7309 11.3565 25.3872 9 22.4961 9C19.605 9 17.2614 11.3565 17.2614 14.2634C17.2614 17.1702 19.605 19.5267 22.4961 19.5267Z" fill="url(#paint2_linear_3639_3237)"/>
</g>
<defs>
<linearGradient id="paint0_linear_3639_3237" x1="8.99997" y1="29.2927" x2="36" y2="29.2927" gradientUnits="userSpaceOnUse">
<stop offset="0.01" stop-color="#9C76AC"/>
<stop offset="1" stop-color="#7D6FAA"/>
</linearGradient>
<linearGradient id="paint1_linear_3639_3237" x1="12.2119" y1="25.6751" x2="32.7881" y2="25.6751" gradientUnits="userSpaceOnUse">
<stop offset="0.01" stop-color="#9C76AC"/>
<stop offset="1" stop-color="#7D6FAA"/>
</linearGradient>
<linearGradient id="paint2_linear_3639_3237" x1="17.2691" y1="14.2634" x2="27.7309" y2="14.2634" gradientUnits="userSpaceOnUse">
<stop offset="0.01" stop-color="#9C76AC"/>
<stop offset="1" stop-color="#7D6FAA"/>
</linearGradient>
<clipPath id="clip0_3639_3237">
<rect width="27" height="27" fill="white" transform="translate(9 9)"/>
</clipPath>
</defs>
</svg>
