<svg width="45" height="45" viewBox="0 0 45 45" fill="none" xmlns="http://www.w3.org/2000/svg">
<circle cx="22.5" cy="22.5" r="22.5" fill="url(#paint0_linear_3639_3241)"/>
<g clip-path="url(#clip0_3639_3241)">
<path d="M11.1001 11H14.2501L17.0401 17.8H17.1701L19.9501 11H23.1001V21.8H20.6301V15.08H20.5401L17.9001 21.73H16.3001L13.6601 15.05H13.5701V21.8H11.1001V11Z" fill="white"/>
<path d="M24.71 21.8V11H29.17C29.96 11 30.63 11.11 31.18 11.34C31.73 11.57 32.14 11.88 32.42 12.3C32.7 12.71 32.84 13.2 32.84 13.75C32.84 14.16 32.76 14.52 32.59 14.84C32.42 15.16 32.19 15.43 31.88 15.64C31.58 15.85 31.23 16 30.84 16.09V16.2C31.28 16.22 31.68 16.34 32.05 16.55C32.42 16.77 32.72 17.07 32.94 17.46C33.16 17.85 33.27 18.3 33.27 18.81C33.27 19.39 33.12 19.91 32.83 20.37C32.53 20.83 32.1 21.18 31.54 21.44C30.98 21.7 30.3 21.82 29.52 21.82H24.72L24.71 21.8ZM28.75 15.45C29.04 15.45 29.3 15.4 29.53 15.3C29.76 15.2 29.93 15.06 30.06 14.87C30.19 14.68 30.25 14.46 30.25 14.21C30.25 13.96 30.19 13.76 30.07 13.58C29.95 13.4 29.78 13.26 29.56 13.16C29.34 13.06 29.08 13.01 28.78 13.01H27.25V15.44H28.74L28.75 15.45ZM28.92 19.73C29.3 19.73 29.62 19.68 29.87 19.59C30.12 19.49 30.31 19.35 30.43 19.17C30.55 18.98 30.61 18.76 30.61 18.5C30.61 18.22 30.54 17.98 30.41 17.77C30.27 17.56 30.08 17.4 29.84 17.28C29.59 17.17 29.3 17.11 28.97 17.11H27.26V19.74H28.92V19.73Z" fill="white"/>
<path d="M29.9901 23.8199V34.9999H27.3601V23.8199H29.9901Z" fill="white"/>
<path d="M22.37 23.59H11V25.73H22.37V23.59Z" fill="white"/>
<path d="M32.68 23.59H24.5V25.73H32.68V23.59Z" fill="white"/>
<path d="M32.68 32.9301H24.5V35.0701H32.68V32.9301Z" fill="white"/>
<path d="M18.0699 25.36H15.3999V34.81H18.0699V25.36Z" fill="white"/>
</g>
<defs>
<linearGradient id="paint0_linear_3639_3241" x1="22.5" y1="0" x2="22.5" y2="45" gradientUnits="userSpaceOnUse">
<stop stop-color="#A192C5"/>
<stop offset="1" stop-color="#9B76AB"/>
</linearGradient>
<clipPath id="clip0_3639_3241">
<rect width="22.26" height="24.07" fill="white" transform="translate(11 11)"/>
</clipPath>
</defs>
</svg>
