<svg width="45" height="45" viewBox="0 0 45 45" fill="none" xmlns="http://www.w3.org/2000/svg">
<circle cx="22.5" cy="22.5" r="22.5" fill="url(#paint0_linear_3639_3242)"/>
<g clip-path="url(#clip0_3639_3242)">
<path d="M31.48 22.51C31.4 24.2 31.32 25.89 31.25 27.58C31.2001 28.8 30.4401 29.74 29.2701 29.99C27.82 30.3 26.3601 29.18 26.35 27.7C26.33 24.56 26.34 21.43 26.35 18.29C26.35 18.08 26.46 17.87 26.55 17.67C26.62 17.51 26.67 17.36 26.5 17.25C26.33 17.14 26.2001 17.23 26.1 17.38C25.89 17.7 25.82 18.06 25.82 18.43C25.82 21.42 25.82 24.4 25.82 27.39C25.82 28.63 25.07 29.59 23.91 29.88C22.43 30.25 20.9101 29.16 20.85 27.63C20.8101 26.59 20.84 25.55 20.83 24.51C20.83 22.91 20.83 21.3 20.83 19.7C20.83 19.61 20.8601 19.5 20.8101 19.44C20.7401 19.35 20.63 19.24 20.53 19.24C20.46 19.24 20.3601 19.38 20.3101 19.47C20.2801 19.53 20.3101 19.63 20.3101 19.7C20.3101 22.14 20.3101 24.58 20.3101 27.02C20.3101 28.25 19.51 29.24 18.3101 29.51C16.87 29.83 15.3801 28.72 15.35 27.25C15.3101 25.23 15.3401 23.22 15.33 21.2C15.33 20.94 15.33 20.69 15.33 20.43C15.33 20.24 15.2701 20.08 15.0601 20.08C14.85 20.08 14.81 20.25 14.81 20.44C14.81 22.67 14.81 24.9 14.81 27.13C14.81 28.06 14.21 28.81 13.31 29.02C12.17 29.32 11.01 28.44 11 27.27C11 24.38 10.99 21.49 11 18.6C11 17.07 12.3 15.85 13.83 15.92C14.12 15.93 14.42 16.01 14.7 16.09C14.95 16.16 15.1301 16.11 15.2801 15.91C16.1701 14.71 17.3601 14.15 18.85 14.31C19.3 14.36 19.75 14.54 20.18 14.7C20.54 14.84 20.7 14.82 20.9 14.48C22.06 12.58 24.71 12.51 25.96 14.35C26.18 14.68 26.29 14.72 26.66 14.58C28.65 13.84 30.83 14.82 31.57 16.79C31.66 17.03 31.7101 17.3 31.7001 17.56C31.6301 19.21 31.55 20.87 31.46 22.52L31.48 22.51Z" fill="white"/>
<path d="M26.07 28.8099C26.47 29.6199 27.07 30.1599 27.9 30.4299C29.7 30.9999 31.6 29.7499 31.73 27.8599C31.83 26.4899 31.87 25.1199 31.94 23.7399C31.98 22.8499 32.02 21.9599 32.06 21.0699C32.06 20.9899 32.08 20.9099 32.09 20.8199C32.12 20.8199 32.14 20.8099 32.17 20.7999C32.46 21.5299 32.78 22.2499 33.04 22.9899C33.77 25.0699 34.04 27.2299 33.93 29.4299C33.89 30.1499 33.79 30.8699 33.67 31.5799C33.48 32.7099 32.38 33.4799 31.24 33.3099C28.68 32.9199 26.16 33.0899 23.68 33.8799C22.91 34.1299 22.25 33.5699 22.38 32.7799C22.51 31.9999 22.81 31.2999 23.31 30.6799C23.38 30.5999 23.49 30.5199 23.58 30.5099C24.66 30.3899 25.45 29.8499 25.98 28.9099C26 28.8799 26.02 28.8499 26.06 28.7899L26.07 28.8099Z" fill="white"/>
</g>
<defs>
<linearGradient id="paint0_linear_3639_3242" x1="22.5" y1="0" x2="22.5" y2="45" gradientUnits="userSpaceOnUse">
<stop stop-color="#A192C5"/>
<stop offset="1" stop-color="#9B76AB"/>
</linearGradient>
<clipPath id="clip0_3639_3242">
<rect width="22.96" height="20.95" fill="white" transform="translate(11 13)"/>
</clipPath>
</defs>
</svg>
