<svg width="45" height="45" viewBox="0 0 45 45" fill="none" xmlns="http://www.w3.org/2000/svg">
<circle cx="22.5" cy="22.5" r="21.75" fill="white" stroke="#CCAFD9" stroke-width="1.5"/>
<g clip-path="url(#clip0_3639_3228)">
<path d="M31.48 21.51C31.4 23.2 31.32 24.89 31.25 26.58C31.2 27.8 30.44 28.74 29.27 28.99C27.82 29.3 26.36 28.18 26.35 26.7C26.33 23.56 26.34 20.43 26.35 17.29C26.35 17.08 26.46 16.87 26.55 16.67C26.62 16.51 26.67 16.36 26.5 16.25C26.33 16.14 26.2 16.23 26.1 16.38C25.89 16.7 25.82 17.06 25.82 17.43C25.82 20.42 25.82 23.4 25.82 26.39C25.82 27.63 25.07 28.59 23.91 28.88C22.43 29.25 20.91 28.16 20.85 26.63C20.81 25.59 20.84 24.55 20.83 23.51C20.83 21.91 20.83 20.3 20.83 18.7C20.83 18.61 20.86 18.5 20.81 18.44C20.74 18.35 20.63 18.24 20.53 18.24C20.46 18.24 20.36 18.38 20.31 18.47C20.28 18.53 20.31 18.63 20.31 18.7C20.31 21.14 20.31 23.58 20.31 26.02C20.31 27.25 19.51 28.24 18.31 28.51C16.87 28.83 15.38 27.72 15.35 26.25C15.31 24.23 15.34 22.22 15.33 20.2C15.33 19.94 15.33 19.69 15.33 19.43C15.33 19.24 15.27 19.08 15.06 19.08C14.85 19.08 14.81 19.25 14.81 19.44C14.81 21.67 14.81 23.9 14.81 26.13C14.81 27.06 14.21 27.81 13.31 28.02C12.17 28.32 11.01 27.44 11 26.27C11 23.38 10.99 20.49 11 17.6C11 16.07 12.3 14.85 13.83 14.92C14.12 14.93 14.42 15.01 14.7 15.09C14.95 15.16 15.13 15.11 15.28 14.91C16.17 13.71 17.36 13.15 18.85 13.31C19.3 13.36 19.75 13.54 20.18 13.7C20.54 13.84 20.7 13.82 20.9 13.48C22.06 11.58 24.71 11.51 25.96 13.35C26.18 13.68 26.29 13.72 26.66 13.58C28.65 12.84 30.83 13.82 31.57 15.79C31.66 16.03 31.71 16.3 31.7 16.56C31.63 18.21 31.55 19.87 31.46 21.52L31.48 21.51Z" fill="url(#paint0_linear_3639_3228)"/>
<path d="M25.4077 27.81C25.8077 28.62 26.4077 29.16 27.2377 29.43C29.0377 30 30.9377 28.75 31.0677 26.86C31.1677 25.49 31.2077 24.12 31.2777 22.74C31.3177 21.85 31.3577 20.96 31.3977 20.07C31.3977 19.99 31.4177 19.91 31.4277 19.82C31.4577 19.82 31.4777 19.81 31.5077 19.8C31.7977 20.53 32.1177 21.25 32.3777 21.99C33.1077 24.07 33.3777 26.23 33.2677 28.43C33.2277 29.15 33.1277 29.87 33.0077 30.58C32.8177 31.71 31.7177 32.48 30.5777 32.31C28.0177 31.92 25.4977 32.09 23.0177 32.88C22.2477 33.13 21.5877 32.57 21.7177 31.78C21.8477 31 22.1477 30.3 22.6477 29.68C22.7177 29.6 22.8277 29.52 22.9177 29.51C23.9977 29.39 24.7877 28.85 25.3177 27.91C25.3377 27.88 25.3577 27.85 25.3977 27.79L25.4077 27.81Z" fill="url(#paint1_linear_3639_3228)"/>
</g>
<defs>
<linearGradient id="paint0_linear_3639_3228" x1="11" y1="20.52" x2="31.71" y2="20.52" gradientUnits="userSpaceOnUse">
<stop offset="0.01" stop-color="#9475AB"/>
<stop offset="1" stop-color="#7871AB"/>
</linearGradient>
<linearGradient id="paint1_linear_3639_3228" x1="21.7077" y1="26.38" x2="33.2977" y2="26.38" gradientUnits="userSpaceOnUse">
<stop offset="0.01" stop-color="#9475AB"/>
<stop offset="1" stop-color="#7871AB"/>
</linearGradient>
<clipPath id="clip0_3639_3228">
<rect width="22.96" height="20.95" fill="white" transform="translate(11 12)"/>
</clipPath>
</defs>
</svg>
