<svg width="45" height="45" viewBox="0 0 45 45" fill="none" xmlns="http://www.w3.org/2000/svg">
<circle cx="22.5" cy="22.5" r="22.5" fill="url(#paint0_linear_3639_3244)"/>
<g clip-path="url(#clip0_3639_3244)">
<path d="M34.76 22.69C33.87 22.69 33.1 23.17 32.68 23.89L26.99 22.53C26.99 22.53 27 22.45 27 22.4C27 21.57 26.71 20.81 26.23 20.2L29.23 16.74C29.65 16.95 30.11 17.09 30.61 17.09C32.29 17.09 33.65 15.73 33.65 14.05C33.65 12.37 32.29 11.01 30.61 11.01C28.93 11.01 27.57 12.37 27.57 14.05C27.57 14.71 27.79 15.31 28.14 15.81L25.15 19.27C24.63 18.97 24.03 18.79 23.38 18.79C22.65 18.79 21.98 19.01 21.41 19.38L18.29 16.2C18.48 15.86 18.59 15.47 18.59 15.05C18.59 13.71 17.5 12.62 16.16 12.62C14.82 12.62 13.73 13.71 13.73 15.05C13.73 16.39 14.82 17.48 16.16 17.48C16.56 17.48 16.94 17.37 17.27 17.2L20.38 20.38C19.99 20.96 19.76 21.66 19.76 22.41C19.76 23.08 19.95 23.69 20.27 24.23L16.03 28.02C15.51 27.65 14.88 27.43 14.19 27.43C12.43 27.43 11 28.86 11 30.62C11 32.38 12.43 33.81 14.19 33.81C15.95 33.81 17.38 32.38 17.38 30.62C17.38 30.06 17.22 29.55 16.97 29.09L21.22 25.3C21.66 25.63 22.16 25.86 22.72 25.96L22.79 30.33C22 30.63 21.44 31.39 21.44 32.28C21.44 33.44 22.38 34.38 23.54 34.38C24.7 34.38 25.64 33.44 25.64 32.28C25.64 31.36 25.05 30.59 24.23 30.31L24.16 25.94C25.28 25.7 26.19 24.94 26.66 23.93L32.35 25.29C32.43 26.56 33.48 27.57 34.77 27.57C36.06 27.57 37.2 26.48 37.2 25.14C37.2 23.8 36.11 22.71 34.77 22.71L34.76 22.69Z" fill="url(#paint1_linear_3639_3244)"/>
<g clip-path="url(#clip1_3639_3244)">
<path d="M34.76 22.69C33.87 22.69 33.1 23.17 32.68 23.89L26.99 22.53C26.99 22.53 27 22.45 27 22.4C27 21.57 26.71 20.81 26.23 20.2L29.23 16.74C29.65 16.95 30.11 17.09 30.61 17.09C32.29 17.09 33.65 15.73 33.65 14.05C33.65 12.37 32.29 11.01 30.61 11.01C28.93 11.01 27.57 12.37 27.57 14.05C27.57 14.71 27.79 15.31 28.14 15.81L25.15 19.27C24.63 18.97 24.03 18.79 23.38 18.79C22.65 18.79 21.98 19.01 21.41 19.38L18.29 16.2C18.48 15.86 18.59 15.47 18.59 15.05C18.59 13.71 17.5 12.62 16.16 12.62C14.82 12.62 13.73 13.71 13.73 15.05C13.73 16.39 14.82 17.48 16.16 17.48C16.56 17.48 16.94 17.37 17.27 17.2L20.38 20.38C19.99 20.96 19.76 21.66 19.76 22.41C19.76 23.08 19.95 23.69 20.27 24.23L16.03 28.02C15.51 27.65 14.88 27.43 14.19 27.43C12.43 27.43 11 28.86 11 30.62C11 32.38 12.43 33.81 14.19 33.81C15.95 33.81 17.38 32.38 17.38 30.62C17.38 30.06 17.22 29.55 16.97 29.09L21.22 25.3C21.66 25.63 22.16 25.86 22.72 25.96L22.79 30.33C22 30.63 21.44 31.39 21.44 32.28C21.44 33.44 22.38 34.38 23.54 34.38C24.7 34.38 25.64 33.44 25.64 32.28C25.64 31.36 25.05 30.59 24.23 30.31L24.16 25.94C25.28 25.7 26.19 24.94 26.66 23.93L32.35 25.29C32.43 26.56 33.48 27.57 34.77 27.57C36.06 27.57 37.2 26.48 37.2 25.14C37.2 23.8 36.11 22.71 34.77 22.71L34.76 22.69Z" fill="white"/>
</g>
</g>
<defs>
<linearGradient id="paint0_linear_3639_3244" x1="22.5" y1="0" x2="22.5" y2="45" gradientUnits="userSpaceOnUse">
<stop stop-color="#A192C5"/>
<stop offset="1" stop-color="#9B76AB"/>
</linearGradient>
<linearGradient id="paint1_linear_3639_3244" x1="11" y1="22.68" x2="37.19" y2="22.68" gradientUnits="userSpaceOnUse">
<stop offset="0.01" stop-color="#9B76AB"/>
<stop offset="1" stop-color="#7C6FAA"/>
</linearGradient>
<clipPath id="clip0_3639_3244">
<rect width="26.19" height="23.37" fill="white" transform="translate(11 11)"/>
</clipPath>
<clipPath id="clip1_3639_3244">
<rect width="26.19" height="23.37" fill="white" transform="translate(11 11)"/>
</clipPath>
</defs>
</svg>
