<svg width="45" height="45" viewBox="0 0 45 45" fill="none" xmlns="http://www.w3.org/2000/svg">
<circle cx="22.5" cy="22.5" r="21.75" fill="white" stroke="#CCAFD9" stroke-width="1.5"/>
<g clip-path="url(#clip0_3639_3239)">
<path d="M32.9624 25.8956C33.347 26.3583 33.2406 26.7136 32.7005 27.0275C32.5696 27.1019 32.455 27.358 32.4714 27.5232C32.4877 27.7794 32.6268 28.0272 32.7005 28.2833C32.946 29.1013 32.3732 29.8862 31.5139 29.9027C31.1129 29.9109 30.7038 29.9192 30.3028 29.9275C29.509 29.9275 28.9034 30.2992 28.4697 30.9602C28.0278 31.6294 27.7987 32.3813 27.6759 33.1579C27.5614 33.8684 27.5041 34.5789 27.635 35.2895C27.7005 35.6612 27.4386 36.0082 27.0622 36.0082H18.036C17.6105 36.0082 17.3241 35.5704 17.4959 35.1738C17.7169 34.6616 17.9378 34.1493 18.1588 33.6371C19.3453 30.8363 19.0426 28.1098 17.7414 25.4412C17.054 24.0202 16.3339 22.6074 15.9329 21.0624C15.401 18.9804 15.311 16.9149 16.162 14.899C17.2259 12.3791 19.1653 10.8754 21.7349 10.1649C24.5254 9.39656 27.1849 9.72703 29.5908 11.4042C31.4566 12.7013 32.4795 14.5768 32.9378 16.7827C33.1015 17.5841 33.1588 18.3855 32.9787 19.2035C32.9214 19.4596 33.0196 19.7983 33.1506 20.0379C33.5761 20.8476 34.0426 21.6242 34.4926 22.4174C34.6318 22.657 34.7872 22.8966 34.91 23.1444C35.09 23.4997 34.9345 23.8797 34.5581 23.9871C34.2308 24.078 33.8871 24.1441 33.5434 24.1772C33.2242 24.2102 33.1015 24.3341 33.2079 24.6481C33.2406 24.7555 33.2651 24.8712 33.3061 24.9703C33.5516 25.5073 33.5516 25.5073 33.0687 25.8378C33.0278 25.8626 32.9869 25.8956 32.946 25.9204L32.9624 25.8956Z" fill="url(#paint0_linear_3639_3239)"/>
<path d="M17.0295 22.7809C20.6858 22.7809 23.6498 19.7884 23.6498 16.097C23.6498 12.4056 20.6858 9.41309 17.0295 9.41309C13.3732 9.41309 10.4092 12.4056 10.4092 16.097C10.4092 19.7884 13.3732 22.7809 17.0295 22.7809Z" fill="url(#paint1_linear_3639_3239)" stroke="white" stroke-miterlimit="10"/>
<path d="M16.8085 12.5609V16.568H20.2946" stroke="white" stroke-width="1.43" stroke-linecap="round" stroke-linejoin="round"/>
</g>
<defs>
<linearGradient id="paint0_linear_3639_3239" x1="15.5401" y1="22.88" x2="35" y2="22.88" gradientUnits="userSpaceOnUse">
<stop offset="0.01" stop-color="#9B76AB"/>
<stop offset="1" stop-color="#7C6FAA"/>
</linearGradient>
<linearGradient id="paint1_linear_3639_3239" x1="10.4092" y1="16.097" x2="23.658" y2="16.097" gradientUnits="userSpaceOnUse">
<stop offset="0.01" stop-color="#9B76AB"/>
<stop offset="1" stop-color="#7C6FAA"/>
</linearGradient>
<clipPath id="clip0_3639_3239">
<rect width="25" height="27" fill="white" transform="translate(10 9)"/>
</clipPath>
</defs>
</svg>
