<svg width="45" height="45" viewBox="0 0 45 45" fill="none" xmlns="http://www.w3.org/2000/svg">
<circle cx="22.5" cy="22.5" r="22.5" fill="url(#paint0_linear_3639_3253)"/>
<g clip-path="url(#clip0_3639_3253)">
<path d="M32.9869 25.9754C33.3684 26.4344 33.2629 26.7869 32.7272 27.0984C32.5973 27.1721 32.4837 27.4262 32.4999 27.5902C32.5161 27.8443 32.6541 28.0902 32.7272 28.3443C32.9707 29.1557 32.4025 29.9344 31.5502 29.9508C31.1525 29.959 30.7467 29.9672 30.3489 29.9754C29.5616 29.9754 28.9609 30.3443 28.5307 31C28.0924 31.6639 27.8652 32.4098 27.7434 33.1803C27.6298 33.8852 27.573 34.5902 27.7028 35.2951C27.7678 35.6639 27.508 36.0082 27.1346 36.0082H18.1817C17.7596 36.0082 17.4756 35.5738 17.646 35.1803C17.8652 34.6721 18.0843 34.1639 18.3035 33.6557C19.4804 30.877 19.1801 28.1721 17.8895 25.5246C17.2077 24.1147 16.4934 22.7131 16.0957 21.1803C15.5681 19.1147 15.4788 17.0656 16.323 15.0656C17.3782 12.5656 19.3019 11.0738 21.8506 10.3688C24.6184 9.60655 27.2564 9.93442 29.6428 11.5984C31.4934 12.8852 32.508 14.7459 32.9626 16.9344C33.1249 17.7295 33.1817 18.5246 33.0032 19.3361C32.9463 19.5902 33.0437 19.9262 33.1736 20.1639C33.5957 20.9672 34.0583 21.7377 34.5048 22.5246C34.6428 22.7623 34.797 23 34.9187 23.2459C35.0973 23.5984 34.9431 23.9754 34.5697 24.082C34.245 24.1721 33.9041 24.2377 33.5632 24.2705C33.2467 24.3033 33.1249 24.4262 33.2304 24.7377C33.2629 24.8443 33.2872 24.959 33.3278 25.0574C33.5713 25.5902 33.5713 25.5902 33.0924 25.918C33.0519 25.9426 33.0113 25.9754 32.9707 26L32.9869 25.9754Z" fill="white"/>
<path d="M17.1835 22.8852C20.8101 22.8852 23.7501 19.9164 23.7501 16.2541C23.7501 12.5918 20.8101 9.62292 17.1835 9.62292C13.5569 9.62292 10.6169 12.5918 10.6169 16.2541C10.6169 19.9164 13.5569 22.8852 17.1835 22.8852Z" fill="white" stroke="url(#paint1_linear_3639_3253)" stroke-width="1.51" stroke-miterlimit="10"/>
<path d="M16.9561 12.7377V16.7213H20.4138" stroke="url(#paint2_linear_3639_3253)" stroke-width="1.43" stroke-linecap="round" stroke-linejoin="round"/>
</g>
<defs>
<linearGradient id="paint0_linear_3639_3253" x1="22.5" y1="0" x2="22.5" y2="45" gradientUnits="userSpaceOnUse">
<stop stop-color="#A192C5"/>
<stop offset="1" stop-color="#9B76AB"/>
</linearGradient>
<linearGradient id="paint1_linear_3639_3253" x1="10.0001" y1="16.2541" x2="24.3669" y2="16.2541" gradientUnits="userSpaceOnUse">
<stop offset="0.01" stop-color="#9C76AC"/>
<stop offset="1" stop-color="#7D6FAA"/>
</linearGradient>
<linearGradient id="paint2_linear_3639_3253" x1="16.3798" y1="14.7295" x2="20.9983" y2="14.7295" gradientUnits="userSpaceOnUse">
<stop offset="0.01" stop-color="#9C76AC"/>
<stop offset="1" stop-color="#7D6FAA"/>
</linearGradient>
<clipPath id="clip0_3639_3253">
<rect width="25" height="27" fill="white" transform="translate(10 9)"/>
</clipPath>
</defs>
</svg>
