<svg width="45" height="45" viewBox="0 0 45 45" fill="none" xmlns="http://www.w3.org/2000/svg">
<circle cx="22.5" cy="22.5" r="22.5" fill="url(#paint0_linear_3639_3254)"/>
<g clip-path="url(#clip0_3639_3254)">
<path d="M35 31.5829H10V33.0001H35V31.5829Z" fill="white"/>
<path d="M15.8216 20.2964H12.3098V31.7865H15.8216V20.2964Z" fill="white"/>
<path d="M21.0125 22.5452H17.5007V31.778H21.0125V22.5452Z" fill="white"/>
<path d="M26.2037 17.9966H22.6919V31.7865H26.2037V17.9966Z" fill="white"/>
<path d="M31.4969 13.8639H27.9851V31.778H31.4969V13.8639Z" fill="white"/>
<path d="M19.3505 18.8452L13.8357 16.1721L14.2874 15.2556L19.163 17.6232L24.0982 13.0407L29.2806 9.33228L29.8773 10.1639L24.746 13.8299L19.3505 18.8452Z" fill="white"/>
<path d="M14.0657 17.462C15.0354 17.462 15.8216 16.6793 15.8216 15.7138C15.8216 14.7484 15.0354 13.9657 14.0657 13.9657C13.0959 13.9657 12.3098 14.7484 12.3098 15.7138C12.3098 16.6793 13.0959 17.462 14.0657 17.462Z" fill="white"/>
<path d="M19.2566 19.9824C20.2264 19.9824 21.0125 19.1997 21.0125 18.2342C21.0125 17.2688 20.2264 16.4861 19.2566 16.4861C18.2869 16.4861 17.5007 17.2688 17.5007 18.2342C17.5007 19.1997 18.2869 19.9824 19.2566 19.9824Z" fill="white"/>
<path d="M24.4478 15.1623C25.4175 15.1623 26.2037 14.3796 26.2037 13.4141C26.2037 12.4487 25.4175 11.666 24.4478 11.666C23.478 11.666 22.6919 12.4487 22.6919 13.4141C22.6919 14.3796 23.478 15.1623 24.4478 15.1623Z" fill="white"/>
<path d="M29.5789 11.4963C30.5486 11.4963 31.3348 10.7136 31.3348 9.74813C31.3348 8.78267 30.5486 8 29.5789 8C28.6091 8 27.823 8.78267 27.823 9.74813C27.823 10.7136 28.6091 11.4963 29.5789 11.4963Z" fill="white"/>
</g>
<defs>
<linearGradient id="paint0_linear_3639_3254" x1="22.5" y1="0" x2="22.5" y2="45" gradientUnits="userSpaceOnUse">
<stop stop-color="#A192C5"/>
<stop offset="1" stop-color="#9B76AB"/>
</linearGradient>
<clipPath id="clip0_3639_3254">
<rect width="25" height="25" fill="white" transform="translate(10 8)"/>
</clipPath>
</defs>
</svg>
