<svg width="45" height="45" viewBox="0 0 45 45" fill="none" xmlns="http://www.w3.org/2000/svg">
<circle cx="22.5" cy="22.5" r="21.75" fill="white" stroke="#CCAFD9" stroke-width="1.5"/>
<g clip-path="url(#clip0_3639_3240)">
<path d="M36 33.5829H11V35.0001H36V33.5829Z" fill="url(#paint0_linear_3639_3240)"/>
<path d="M16.8217 22.2964H13.3099V33.7865H16.8217V22.2964Z" fill="url(#paint1_linear_3639_3240)"/>
<path d="M22.0126 24.5452H18.5009V33.778H22.0126V24.5452Z" fill="url(#paint2_linear_3639_3240)"/>
<path d="M27.2035 19.9966H23.6918V33.7865H27.2035V19.9966Z" fill="url(#paint3_linear_3639_3240)"/>
<path d="M32.4967 15.8639H28.985V33.778H32.4967V15.8639Z" fill="url(#paint4_linear_3639_3240)"/>
<path d="M15.0658 17.7139L20.2567 20.2343L25.4477 15.4142L30.5789 11.7482" stroke="url(#paint5_linear_3639_3240)" stroke-width="1.2" stroke-miterlimit="10"/>
<path d="M15.0658 19.462C16.0356 19.462 16.8217 18.6793 16.8217 17.7138C16.8217 16.7484 16.0356 15.9657 15.0658 15.9657C14.0961 15.9657 13.3099 16.7484 13.3099 17.7138C13.3099 18.6793 14.0961 19.462 15.0658 19.462Z" fill="url(#paint6_linear_3639_3240)"/>
<path d="M20.2567 21.9824C21.2265 21.9824 22.0126 21.1997 22.0126 20.2342C22.0126 19.2688 21.2265 18.4861 20.2567 18.4861C19.287 18.4861 18.5009 19.2688 18.5009 20.2342C18.5009 21.1997 19.287 21.9824 20.2567 21.9824Z" fill="url(#paint7_linear_3639_3240)"/>
<path d="M25.4477 17.1623C26.4174 17.1623 27.2035 16.3796 27.2035 15.4141C27.2035 14.4487 26.4174 13.666 25.4477 13.666C24.4779 13.666 23.6918 14.4487 23.6918 15.4141C23.6918 16.3796 24.4779 17.1623 25.4477 17.1623Z" fill="url(#paint8_linear_3639_3240)"/>
<path d="M30.5789 13.4963C31.5487 13.4963 32.3348 12.7136 32.3348 11.7481C32.3348 10.7827 31.5487 10 30.5789 10C29.6092 10 28.8231 10.7827 28.8231 11.7481C28.8231 12.7136 29.6092 13.4963 30.5789 13.4963Z" fill="url(#paint9_linear_3639_3240)"/>
</g>
<defs>
<linearGradient id="paint0_linear_3639_3240" x1="11" y1="34.2957" x2="36" y2="34.2957" gradientUnits="userSpaceOnUse">
<stop offset="0.01" stop-color="#9B76AB"/>
<stop offset="1" stop-color="#7C6FAA"/>
</linearGradient>
<linearGradient id="paint1_linear_3639_3240" x1="13.3099" y1="28.033" x2="16.8217" y2="28.033" gradientUnits="userSpaceOnUse">
<stop offset="0.01" stop-color="#9B76AB"/>
<stop offset="1" stop-color="#7C6FAA"/>
</linearGradient>
<linearGradient id="paint2_linear_3639_3240" x1="18.5009" y1="29.1616" x2="22.0126" y2="29.1616" gradientUnits="userSpaceOnUse">
<stop offset="0.01" stop-color="#9B76AB"/>
<stop offset="1" stop-color="#7C6FAA"/>
</linearGradient>
<linearGradient id="paint3_linear_3639_3240" x1="23.6918" y1="26.8873" x2="27.2035" y2="26.8873" gradientUnits="userSpaceOnUse">
<stop offset="0.01" stop-color="#9B76AB"/>
<stop offset="1" stop-color="#7C6FAA"/>
</linearGradient>
<linearGradient id="paint4_linear_3639_3240" x1="28.985" y1="24.8252" x2="32.4882" y2="24.8252" gradientUnits="userSpaceOnUse">
<stop offset="0.01" stop-color="#9B76AB"/>
<stop offset="1" stop-color="#7C6FAA"/>
</linearGradient>
<linearGradient id="paint5_linear_3639_3240" x1="14.8357" y1="16.093" x2="30.8773" y2="16.093" gradientUnits="userSpaceOnUse">
<stop offset="0.01" stop-color="#9B76AB"/>
<stop offset="1" stop-color="#7C6FAA"/>
</linearGradient>
<linearGradient id="paint6_linear_3639_3240" x1="13.3099" y1="17.7138" x2="16.8217" y2="17.7138" gradientUnits="userSpaceOnUse">
<stop offset="0.01" stop-color="#9B76AB"/>
<stop offset="1" stop-color="#7C6FAA"/>
</linearGradient>
<linearGradient id="paint7_linear_3639_3240" x1="18.5009" y1="20.2342" x2="22.0126" y2="20.2342" gradientUnits="userSpaceOnUse">
<stop offset="0.01" stop-color="#9B76AB"/>
<stop offset="1" stop-color="#7C6FAA"/>
</linearGradient>
<linearGradient id="paint8_linear_3639_3240" x1="23.6918" y1="15.4141" x2="27.2035" y2="15.4141" gradientUnits="userSpaceOnUse">
<stop offset="0.01" stop-color="#9B76AB"/>
<stop offset="1" stop-color="#7C6FAA"/>
</linearGradient>
<linearGradient id="paint9_linear_3639_3240" x1="28.8231" y1="11.7481" x2="32.3348" y2="11.7481" gradientUnits="userSpaceOnUse">
<stop offset="0.01" stop-color="#9B76AB"/>
<stop offset="1" stop-color="#7C6FAA"/>
</linearGradient>
<clipPath id="clip0_3639_3240">
<rect width="25" height="25" fill="white" transform="translate(11 10)"/>
</clipPath>
</defs>
</svg>
