<svg width="45" height="45" viewBox="0 0 45 45" fill="none" xmlns="http://www.w3.org/2000/svg">
<circle cx="22.5" cy="22.5" r="22.5" fill="url(#paint0_linear_3639_3246)"/>
<g clip-path="url(#clip0_3639_3246)">
<path d="M19.0801 17.93C19.0801 20.07 20.8101 21.8 22.9501 21.8H23.7801C25.9201 21.8 27.6501 20.07 27.6501 17.93V17.09H19.0801V17.93Z" fill="url(#paint1_linear_3639_3246)"/>
<path d="M30 17.99V13.67H31.73V12H15V13.67H16.73V17.99C16.73 20.24 17.93 22.32 19.84 23.47C17.93 24.63 16.73 26.7 16.73 28.95V33.27H15V34.94H31.73V33.27H30V28.95C30 26.7 28.8 24.62 26.89 23.47C28.8 22.31 30 20.24 30 17.99ZM25.7 22.69C25.39 22.83 25.19 23.13 25.19 23.47C25.19 23.81 25.39 24.11 25.7 24.25C27.55 25.09 28.75 26.94 28.75 28.95V33.27H27.64V31.14C27.64 29 25.91 27.27 23.77 27.27H22.94C20.8 27.27 19.07 29 19.07 31.14V33.27H17.96V28.95C17.96 26.93 19.16 25.09 21.01 24.25C21.32 24.11 21.52 23.81 21.52 23.47C21.52 23.13 21.32 22.83 21.01 22.69C19.16 21.85 17.96 20 17.96 17.99V13.67H28.74V17.99C28.74 20.01 27.54 21.85 25.69 22.69H25.7Z" fill="url(#paint2_linear_3639_3246)"/>
<path d="M22.9101 24.93C23.2249 24.93 23.4801 24.6748 23.4801 24.36C23.4801 24.0452 23.2249 23.79 22.9101 23.79C22.5953 23.79 22.3401 24.0452 22.3401 24.36C22.3401 24.6748 22.5953 24.93 22.9101 24.93Z" fill="url(#paint3_linear_3639_3246)"/>
<path d="M24.1 26.47C24.3209 26.47 24.5 26.291 24.5 26.07C24.5 25.8491 24.3209 25.67 24.1 25.67C23.879 25.67 23.7 25.8491 23.7 26.07C23.7 26.291 23.879 26.47 24.1 26.47Z" fill="url(#paint4_linear_3639_3246)"/>
<g clip-path="url(#clip1_3639_3246)">
<path d="M19.0801 17.93C19.0801 20.07 20.8101 21.8 22.9501 21.8H23.7801C25.9201 21.8 27.6501 20.07 27.6501 17.93V17.09H19.0801V17.93Z" fill="white"/>
<path d="M30 17.99V13.67H31.73V12H15V13.67H16.73V17.99C16.73 20.24 17.93 22.32 19.84 23.47C17.93 24.63 16.73 26.7 16.73 28.95V33.27H15V34.94H31.73V33.27H30V28.95C30 26.7 28.8 24.62 26.89 23.47C28.8 22.31 30 20.24 30 17.99ZM25.7 22.69C25.39 22.83 25.19 23.13 25.19 23.47C25.19 23.81 25.39 24.11 25.7 24.25C27.55 25.09 28.75 26.94 28.75 28.95V33.27H27.64V31.14C27.64 29 25.91 27.27 23.77 27.27H22.94C20.8 27.27 19.07 29 19.07 31.14V33.27H17.96V28.95C17.96 26.93 19.16 25.09 21.01 24.25C21.32 24.11 21.52 23.81 21.52 23.47C21.52 23.13 21.32 22.83 21.01 22.69C19.16 21.85 17.96 20 17.96 17.99V13.67H28.74V17.99C28.74 20.01 27.54 21.85 25.69 22.69H25.7Z" fill="white"/>
<path d="M22.9101 24.93C23.2249 24.93 23.4801 24.6748 23.4801 24.36C23.4801 24.0452 23.2249 23.79 22.9101 23.79C22.5953 23.79 22.3401 24.0452 22.3401 24.36C22.3401 24.6748 22.5953 24.93 22.9101 24.93Z" fill="white"/>
<path d="M24.1 26.47C24.3209 26.47 24.5 26.291 24.5 26.07C24.5 25.8491 24.3209 25.67 24.1 25.67C23.879 25.67 23.7 25.8491 23.7 26.07C23.7 26.291 23.879 26.47 24.1 26.47Z" fill="white"/>
</g>
</g>
<defs>
<linearGradient id="paint0_linear_3639_3246" x1="22.5" y1="0" x2="22.5" y2="45" gradientUnits="userSpaceOnUse">
<stop stop-color="#A192C5"/>
<stop offset="1" stop-color="#9B76AB"/>
</linearGradient>
<linearGradient id="paint1_linear_3639_3246" x1="19.0801" y1="19.44" x2="27.6501" y2="19.44" gradientUnits="userSpaceOnUse">
<stop offset="0.01" stop-color="#9B76AB"/>
<stop offset="1" stop-color="#7C6FAA"/>
</linearGradient>
<linearGradient id="paint2_linear_3639_3246" x1="15" y1="23.47" x2="31.73" y2="23.47" gradientUnits="userSpaceOnUse">
<stop offset="0.01" stop-color="#9B76AB"/>
<stop offset="1" stop-color="#7C6FAA"/>
</linearGradient>
<linearGradient id="paint3_linear_3639_3246" x1="22.3501" y1="24.36" x2="23.4801" y2="24.36" gradientUnits="userSpaceOnUse">
<stop offset="0.01" stop-color="#9B76AB"/>
<stop offset="1" stop-color="#7C6FAA"/>
</linearGradient>
<linearGradient id="paint4_linear_3639_3246" x1="23.7" y1="26.07" x2="24.5" y2="26.07" gradientUnits="userSpaceOnUse">
<stop offset="0.01" stop-color="#9B76AB"/>
<stop offset="1" stop-color="#7C6FAA"/>
</linearGradient>
<clipPath id="clip0_3639_3246">
<rect width="16.73" height="22.95" fill="white" transform="translate(15 12)"/>
</clipPath>
<clipPath id="clip1_3639_3246">
<rect width="16.73" height="22.95" fill="white" transform="translate(15 12)"/>
</clipPath>
</defs>
</svg>
