<svg width="45" height="45" viewBox="0 0 45 45" fill="none" xmlns="http://www.w3.org/2000/svg">
<circle cx="22.5" cy="22.5" r="21.75" fill="white" stroke="#CCAFD9" stroke-width="1.5"/>
<g clip-path="url(#clip0_3639_3229)">
<path d="M26.45 15H19.95L17.72 20.05H28.68L26.45 15Z" fill="url(#paint0_linear_3639_3229)"/>
<path d="M29.58 20.05L27.35 15H30.59L34.4 20.05H29.58Z" fill="url(#paint1_linear_3639_3229)"/>
<path d="M23.2 34.16L17.72 20.76H28.68L23.2 34.16Z" fill="url(#paint2_linear_3639_3229)"/>
<path d="M24.49 33.14L29.55 20.76H34.4L24.49 33.14Z" fill="url(#paint3_linear_3639_3229)"/>
<path d="M16.83 20.05L19.06 15H15.81L12 20.05H16.83Z" fill="url(#paint4_linear_3639_3229)"/>
<path d="M21.91 33.14L16.85 20.76H12L21.91 33.14Z" fill="url(#paint5_linear_3639_3229)"/>
</g>
<defs>
<linearGradient id="paint0_linear_3639_3229" x1="17.72" y1="17.53" x2="28.68" y2="17.53" gradientUnits="userSpaceOnUse">
<stop offset="0.01" stop-color="#9B76AB"/>
<stop offset="1" stop-color="#7C6FAA"/>
</linearGradient>
<linearGradient id="paint1_linear_3639_3229" x1="27.35" y1="15" x2="34.4" y2="15" gradientUnits="userSpaceOnUse">
<stop offset="0.01" stop-color="#9B76AB"/>
<stop offset="1" stop-color="#7C6FAA"/>
</linearGradient>
<linearGradient id="paint2_linear_3639_3229" x1="17.72" y1="27.46" x2="28.68" y2="27.46" gradientUnits="userSpaceOnUse">
<stop offset="0.01" stop-color="#9B76AB"/>
<stop offset="1" stop-color="#7C6FAA"/>
</linearGradient>
<linearGradient id="paint3_linear_3639_3229" x1="24.49" y1="26.95" x2="34.4" y2="26.95" gradientUnits="userSpaceOnUse">
<stop offset="0.01" stop-color="#9B76AB"/>
<stop offset="1" stop-color="#7C6FAA"/>
</linearGradient>
<linearGradient id="paint4_linear_3639_3229" x1="12" y1="15" x2="19.06" y2="15" gradientUnits="userSpaceOnUse">
<stop offset="0.01" stop-color="#9B76AB"/>
<stop offset="1" stop-color="#7C6FAA"/>
</linearGradient>
<linearGradient id="paint5_linear_3639_3229" x1="12" y1="26.95" x2="21.91" y2="26.95" gradientUnits="userSpaceOnUse">
<stop offset="0.01" stop-color="#9B76AB"/>
<stop offset="1" stop-color="#7C6FAA"/>
</linearGradient>
<clipPath id="clip0_3639_3229">
<rect width="22.4" height="19.16" fill="white" transform="translate(12 15)"/>
</clipPath>
</defs>
</svg>
