<svg width="45" height="45" viewBox="0 0 45 45" fill="none" xmlns="http://www.w3.org/2000/svg">
<circle cx="22.5" cy="22.5" r="22.5" fill="url(#paint0_linear_3639_3247)"/>
<g clip-path="url(#clip0_3639_3247)">
<path d="M31.7101 30.49C32.1601 30.08 32.1901 29.37 31.7801 28.92C31.3701 28.47 30.6601 28.44 30.2101 28.85L27.4101 31.42C27.4001 31.19 27.3901 30.96 27.3501 30.73L31.1901 27.2C31.6401 26.79 31.6701 26.08 31.2601 25.63C30.8501 25.18 30.1401 25.15 29.6901 25.56L26.5201 28.47C26.4301 28.31 26.3101 28.16 26.2101 28.01L30.1601 24.38C30.6101 23.97 30.6401 23.26 30.2301 22.81C29.8201 22.36 29.1101 22.33 28.6601 22.74L24.6701 26.4C24.5101 26.29 24.3401 26.2 24.1801 26.1L29.4201 21.28C29.8701 20.87 29.9001 20.16 29.4901 19.71C29.0801 19.26 28.3701 19.23 27.9201 19.64L21.8401 25.22C21.3301 25.14 20.8201 25.1 20.3101 25.15L20.9501 20.86C21.0401 20.25 20.6201 19.69 20.0201 19.6C19.4901 19.52 19.0001 19.85 18.8301 20.34L18.8101 20.3L15.8801 27.98C15.5601 28.54 15.3101 29.14 15.1901 29.78V29.81C14.8401 31.71 15.3801 33.8 16.8501 35.4C19.1301 37.88 22.7701 38.24 25.2201 36.35L31.7101 30.45V30.49Z" fill="url(#paint1_linear_3639_3247)"/>
<path d="M23.69 16.14C25.48 14.49 25.59 12.9 25.59 12.9C25.67 9.22 21.38 8 21.38 8L23.15 11.01L20.55 13.77L16.79 14.3L15.36 11.11C15.36 11.11 13.88 15.32 16.93 17.38C16.93 17.38 18.29 18.2 20.67 17.7L23.39 22.96L25.99 20.57L23.7 16.14H23.69Z" fill="url(#paint2_linear_3639_3247)"/>
<path d="M31.9599 32.1301L31.5299 31.3101L28.9299 33.7001C29.3599 34.5401 30.3899 34.8601 31.2299 34.4301C32.0699 34.0001 32.3899 32.9701 31.9599 32.1301Z" fill="url(#paint3_linear_3639_3247)"/>
<g clip-path="url(#clip1_3639_3247)">
<path d="M31.7101 30.49C32.1601 30.08 32.1901 29.37 31.7801 28.92C31.3701 28.47 30.6601 28.44 30.2101 28.85L27.4101 31.42C27.4001 31.19 27.3901 30.96 27.3501 30.73L31.1901 27.2C31.6401 26.79 31.6701 26.08 31.2601 25.63C30.8501 25.18 30.1401 25.15 29.6901 25.56L26.5201 28.47C26.4301 28.31 26.3101 28.16 26.2101 28.01L30.1601 24.38C30.6101 23.97 30.6401 23.26 30.2301 22.81C29.8201 22.36 29.1101 22.33 28.6601 22.74L24.6701 26.4C24.5101 26.29 24.3401 26.2 24.1801 26.1L29.4201 21.28C29.8701 20.87 29.9001 20.16 29.4901 19.71C29.0801 19.26 28.3701 19.23 27.9201 19.64L21.8401 25.22C21.3301 25.14 20.8201 25.1 20.3101 25.15L20.9501 20.86C21.0401 20.25 20.6201 19.69 20.0201 19.6C19.4901 19.52 19.0001 19.85 18.8301 20.34L18.8101 20.3L15.8801 27.98C15.5601 28.54 15.3101 29.14 15.1901 29.78V29.81C14.8401 31.71 15.3801 33.8 16.8501 35.4C19.1301 37.88 22.7701 38.24 25.2201 36.35L31.7101 30.45V30.49Z" fill="white"/>
<path d="M23.69 16.14C25.48 14.49 25.59 12.9 25.59 12.9C25.67 9.22 21.38 8 21.38 8L23.15 11.01L20.55 13.77L16.79 14.3L15.36 11.11C15.36 11.11 13.88 15.32 16.93 17.38C16.93 17.38 18.29 18.2 20.67 17.7L23.39 22.96L25.99 20.57L23.7 16.14H23.69Z" fill="white"/>
<path d="M31.9599 32.1301L31.5299 31.3101L28.9299 33.7001C29.3599 34.5401 30.3899 34.8601 31.2299 34.4301C32.0699 34.0001 32.3899 32.9701 31.9599 32.1301Z" fill="white"/>
</g>
</g>
<defs>
<linearGradient id="paint0_linear_3639_3247" x1="22.5" y1="0" x2="22.5" y2="45" gradientUnits="userSpaceOnUse">
<stop stop-color="#A192C5"/>
<stop offset="1" stop-color="#9B76AB"/>
</linearGradient>
<linearGradient id="paint1_linear_3639_3247" x1="15.0801" y1="28.49" x2="32.0701" y2="28.49" gradientUnits="userSpaceOnUse">
<stop offset="0.01" stop-color="#9B76AB"/>
<stop offset="1" stop-color="#7C6FAA"/>
</linearGradient>
<linearGradient id="paint2_linear_3639_3247" x1="15" y1="15.48" x2="25.98" y2="15.48" gradientUnits="userSpaceOnUse">
<stop offset="0.01" stop-color="#9B76AB"/>
<stop offset="1" stop-color="#7C6FAA"/>
</linearGradient>
<linearGradient id="paint3_linear_3639_3247" x1="28.9299" y1="32.9601" x2="32.1499" y2="32.9601" gradientUnits="userSpaceOnUse">
<stop offset="0.01" stop-color="#9B76AB"/>
<stop offset="1" stop-color="#7C6FAA"/>
</linearGradient>
<clipPath id="clip0_3639_3247">
<rect width="17.15" height="29.59" fill="white" transform="translate(15 8)"/>
</clipPath>
<clipPath id="clip1_3639_3247">
<rect width="17.15" height="29.59" fill="white" transform="translate(15 8)"/>
</clipPath>
</defs>
</svg>
