<svg width="45" height="45" viewBox="0 0 45 45" fill="none" xmlns="http://www.w3.org/2000/svg">
<circle cx="22.5" cy="22.5" r="21.75" fill="white" stroke="#CCAFD9" stroke-width="1.5"/>
<g clip-path="url(#clip0_3639_3233)">
<path d="M31.71 30.49C32.16 30.08 32.19 29.37 31.78 28.92C31.37 28.47 30.66 28.44 30.21 28.85L27.41 31.42C27.4 31.19 27.39 30.96 27.35 30.73L31.19 27.2C31.64 26.79 31.67 26.08 31.26 25.63C30.85 25.18 30.14 25.15 29.69 25.56L26.52 28.47C26.43 28.31 26.31 28.16 26.21 28.01L30.16 24.38C30.61 23.97 30.64 23.26 30.23 22.81C29.82 22.36 29.11 22.33 28.66 22.74L24.67 26.4C24.51 26.29 24.34 26.2 24.18 26.1L29.42 21.28C29.87 20.87 29.9 20.16 29.49 19.71C29.08 19.26 28.37 19.23 27.92 19.64L21.84 25.22C21.33 25.14 20.82 25.1 20.31 25.15L20.95 20.86C21.04 20.25 20.62 19.69 20.02 19.6C19.49 19.52 19 19.85 18.83 20.34L18.81 20.3L15.88 27.98C15.56 28.54 15.31 29.14 15.19 29.78V29.81C14.84 31.71 15.38 33.8 16.85 35.4C19.13 37.88 22.77 38.24 25.22 36.35L31.71 30.45V30.49Z" fill="url(#paint0_linear_3639_3233)"/>
<path d="M23.69 16.14C25.48 14.49 25.59 12.9 25.59 12.9C25.67 9.22 21.38 8 21.38 8L23.15 11.01L20.55 13.77L16.79 14.3L15.36 11.11C15.36 11.11 13.88 15.32 16.93 17.38C16.93 17.38 18.29 18.2 20.67 17.7L23.39 22.96L25.99 20.57L23.7 16.14H23.69Z" fill="url(#paint1_linear_3639_3233)"/>
<path d="M31.96 32.1301L31.53 31.3101L28.93 33.7001C29.36 34.5401 30.39 34.8601 31.23 34.4301C32.07 34.0001 32.39 32.9701 31.96 32.1301Z" fill="url(#paint2_linear_3639_3233)"/>
</g>
<defs>
<linearGradient id="paint0_linear_3639_3233" x1="15.08" y1="28.49" x2="32.07" y2="28.49" gradientUnits="userSpaceOnUse">
<stop offset="0.01" stop-color="#9B76AB"/>
<stop offset="1" stop-color="#7C6FAA"/>
</linearGradient>
<linearGradient id="paint1_linear_3639_3233" x1="15" y1="15.48" x2="25.98" y2="15.48" gradientUnits="userSpaceOnUse">
<stop offset="0.01" stop-color="#9B76AB"/>
<stop offset="1" stop-color="#7C6FAA"/>
</linearGradient>
<linearGradient id="paint2_linear_3639_3233" x1="28.93" y1="32.9601" x2="32.15" y2="32.9601" gradientUnits="userSpaceOnUse">
<stop offset="0.01" stop-color="#9B76AB"/>
<stop offset="1" stop-color="#7C6FAA"/>
</linearGradient>
<clipPath id="clip0_3639_3233">
<rect width="17.15" height="29.59" fill="white" transform="translate(15 8)"/>
</clipPath>
</defs>
</svg>
